<?xml version="1.0" encoding="UTF-8" standalone="no"?>
<!-- Generator: Adobe Illustrator 18.0.0, SVG Export Plug-In . SVG Version: 6.00 Build 0)  -->

<svg
   xmlns:dc="http://purl.org/dc/elements/1.1/"
   xmlns:cc="http://creativecommons.org/ns#"
   xmlns:rdf="http://www.w3.org/1999/02/22-rdf-syntax-ns#"
   xmlns:svg="http://www.w3.org/2000/svg"
   xmlns="http://www.w3.org/2000/svg"
   xmlns:sodipodi="http://sodipodi.sourceforge.net/DTD/sodipodi-0.dtd"
   xmlns:inkscape="http://www.inkscape.org/namespaces/inkscape"
   version="1.1"
   id="Capa_1"
   inkscape:version="0.91 r13725"
   sodipodi:docname="ba_logo.svg"
   x="0px"
   y="0px"
   viewBox="-40.2 137.8 733.2 303"
   enable-background="new -40.2 137.8 769.2 303"
   xml:space="preserve"
   width="733.20001"
   height="303"><metadata
     id="metadata28"><rdf:RDF><cc:Work
         rdf:about=""><dc:format>image/svg+xml</dc:format><dc:type
           rdf:resource="http://purl.org/dc/dcmitype/StillImage" /><dc:title></dc:title></cc:Work></rdf:RDF></metadata><defs
     id="defs26" /><sodipodi:namedview
     id="namedview25"
     inkscape:current-layer="g3037"
     inkscape:window-maximized="1"
     inkscape:window-y="-8"
     inkscape:pageshadow="2"
     inkscape:window-x="-8"
     inkscape:window-height="705"
     inkscape:window-width="1366"
     inkscape:pageopacity="0"
     inkscape:cx="196.21934"
     showgrid="false"
     bordercolor="#666666"
     inkscape:zoom="0.7109391"
     guidetolerance="10"
     borderopacity="1"
     objecttolerance="10"
     pagecolor="#ffffff"
     gridtolerance="10"
     inkscape:cy="81.150002" /><g
     id="g3037"
     transform="matrix(0.5821942,0,0,0.5821942,130.62751,76.770452)"><path
       id="path2988"
       inkscape:connector-curvature="0"
       d="m 15.02968,345.9 c 0,-8 -4.2,-15.1 -10.6999996,-19.3 l 0,0 c -8.5999995,-5.3 -14.3999994,-14.9 -14.3999994,-26 0,-6.5 2.2000001,-12.8 5.8999999,-17.8 l 0,0 c 2.6999999,-3.7 4.19999966,-8.3 4.19999966,-12.9 0,-5.9 -2.19999976,-11 -5.59999956,-15.1 -4.5,-5.3 -36.7,-46.2 -121.300001,-96.7 -4.6,-3 -10.2,-4.6 -16.2,-4.6 -6.8,0 -12.9,2.2 -18.1,5.9 l 0,0 -51.2,36.5 0,0 0,0 c -4.6,3.1 -10.5,4.9 -16.3,4.9 l -38.2,0 c -12.8,0 -22.7,10.2 -22.7,22.7 l 0,308.7 c 0,5.6 1.9,10.7 5.3,14.7 3.1,4.2 11.7,11.4 20.5,16.6 3.4,2.2 7.9,3.7 12.2,3.7 12.8,0 22.7,-10.2 22.7,-22.7 l 0,-61.2 c 0,-12.8 10.2,-22.7 22.7,-22.7 3.7,0 6.8,0.7 10.1,2.2 l 0,0 c 18.4,7.9 38.6,12 60,12 74.500001,0.2 136.70000056,-52.8 150.8,-123.7 0,-1.4 0.3,-3.2 0.3,-5.2"
       style="fill:#acc12f" /><path
       id="path2990"
       inkscape:connector-curvature="0"
       d="m 103.02968,371.9 c 0,-3.9 2.5,-6.4 6.4,-6.4 l 33,0 c 21.2,0 34.2,12.9 34.2,31.9 0,19 -12.9,31.9 -34.2,31.9 l -24.2,0 c -0.6,0 -0.9,0.3 -0.9,0.9 l 0,35.2 c 0,4.8 -2.8,7.4 -6.8,7.4 -4,0 -7.1,-2.8 -7.1,-7.4 l 0,-93.6 -0.4,0.1 0,0 z m 59.7,25.6 c 0,-11.6 -7.7,-18.7 -20.9,-18.7 l -23.9,0 c -0.6,0 -0.9,0.3 -0.9,0.9 l 0,35.8 c 0,0.6 0.3,0.9 0.9,0.9 l 23.8,0 c 13.2,-0.1 21,-7.3 21,-18.9"
       style="fill:#ffffff" /><path
       id="path2992"
       inkscape:connector-curvature="0"
       d="m 186.92968,466.1 0,-62.5 c 0,-4.5 2.8,-7.1 6.5,-7.1 3.7,0 6.5,2.8 6.5,7.1 l 0,3.6 0.3,0 c 3,-6.5 9.9,-11.6 19.3,-11.6 5.2,0 8.5,1.3 11,2.8 2.8,1.3 3.9,3.6 3.9,5.8 0,3.9 -2.8,6.5 -6.5,6.5 -0.9,0 -2.2,-0.3 -3.3,-0.9 -2.8,-1 -5.5,-1.9 -8.5,-1.9 -11.3,0 -16,9.4 -16,22 l 0,36.4 c 0,4.5 -2.8,7.1 -6.5,7.1 -3.9,-0.2 -6.7,-2.9 -6.7,-7.3"
       style="fill:#ffffff" /><path
       id="path2994"
       inkscape:connector-curvature="0"
       d="m 242.02968,454.1 c -1.6,-5.2 -2.5,-10.4 -2.5,-19 0,-8.6 0.9,-13.8 2.5,-19 4.2,-12.9 15.1,-20 29.7,-20 14.6,0 25.5,7.4 29.7,20 1.6,5.2 2.5,10.4 2.5,19 0,8.8 -0.9,14.1 -2.5,19 -4.2,12.6 -15.1,20 -29.7,20 -14.9,0 -25.6,-7.4 -29.7,-20 m 46.4,-3.9 c 1.3,-4.2 1.6,-8.3 1.6,-15.4 0,-7.1 -0.6,-11 -1.6,-15.1 -2.5,-7.4 -8.5,-11.9 -17.1,-11.9 -8.3,0 -14.3,4.2 -17.1,11.9 -1.3,4.2 -1.6,8 -1.6,15.1 0,7.1 0.6,11.3 1.6,15.4 2.5,7.4 8.5,11.9 17.1,11.9 8.7,0 14.8,-4.5 17.1,-11.9"
       style="fill:#ffffff" /><path
       id="path2996"
       inkscape:connector-curvature="0"
       d="m 333.92968,465 -22.9,-59 c -0.6,-1.3 -0.6,-2.2 -0.6,-3.3 0,-3.6 2.5,-6.4 6.4,-6.4 3,0 5.2,1.9 6.4,4.8 l 19.6,52.3 0.3,0 19,-52.3 c 1,-2.8 3,-4.8 6.4,-4.8 3.9,0 6.4,2.8 6.4,6.4 0,1 -0.3,1.9 -0.6,3.3 l -22.9,59 c -2.5,6.1 -4.5,8.3 -8.5,8.3 -4.6,-0.1 -6.5,-2.3 -9,-8.3"
       style="fill:#ffffff" /><path
       id="path2998"
       inkscape:connector-curvature="0"
       d="m 384.82968,373.6 c 0,-4.9 3.9,-8.5 8.5,-8.5 4.8,0 8.5,3.9 8.5,8.5 0,4.6 -3.9,8.5 -8.5,8.5 -4.6,0.1 -8.5,-3.8 -8.5,-8.5 m 2.2,30 c 0,-4.5 2.8,-7.1 6.5,-7.1 3.7,0 6.5,2.8 6.5,7.1 l 0,62.5 c 0,4.5 -2.8,7.1 -6.5,7.1 -3.7,0 -6.5,-2.8 -6.5,-7.1 l 0,-62.5 z"
       style="fill:#ffffff" /><path
       id="path3000"
       inkscape:connector-curvature="0"
       d="m 419.62968,403.6 c 0,-4.5 2.8,-7.1 6.5,-7.1 3.7,0 6.5,2.8 6.5,7.1 l 0,2.2 0.3,0 c 3.6,-5.8 10.7,-10.2 20.9,-10.2 16.2,0 26.1,11 26.1,28.4 l 0,42.5 c 0,4.5 -2.8,7.1 -6.5,7.1 -3.9,0 -6.5,-2.8 -6.5,-7.1 l 0,-39.1 c 0,-12.2 -5.5,-19 -16.8,-19 -10.2,0 -17.4,7.1 -17.4,18.4 l 0,39.9 c 0,4.5 -2.8,7.1 -6.5,7.1 -3.9,0 -6.5,-2.8 -6.5,-7.1 l -0.1,-63.1 0,0 z"
       style="fill:#ffffff" /><path
       id="path3002"
       inkscape:connector-curvature="0"
       d="m 497.22968,454.1 c -1.3,-4.8 -2.5,-10.7 -2.5,-19 0,-8.3 0.9,-14.3 2.5,-19 4.2,-12.9 15.1,-20 29.7,-20 11.3,0 19.3,4.9 23.9,11 1.3,1.6 1.9,3 1.9,4.9 0,3.3 -2.5,5.8 -5.8,5.8 -2.5,0 -4.2,-1.3 -5.8,-3 -3.6,-3.9 -7.4,-6.4 -14.3,-6.4 -8.3,0 -14.3,3.9 -16.8,11.9 -1.3,3.9 -1.6,8.5 -1.6,15.1 0,6.5 0.6,11.6 1.6,15.4 2.5,7.7 8.5,11.9 16.8,11.9 6.5,0 10.7,-2.5 14.3,-6.4 1.6,-1.9 3.6,-3 5.8,-3 3.3,0 5.8,2.5 5.8,5.8 0,1.6 -0.6,3 -1.9,4.9 -4.8,6.1 -12.6,11 -23.9,11 -14.5,-0.9 -25.7,-8 -29.7,-20.9"
       style="fill:#ffffff" /><path
       id="path3004"
       inkscape:connector-curvature="0"
       d="m 565.72968,373.6 c 0,-4.9 3.9,-8.5 8.5,-8.5 4.6,0 8.5,3.9 8.5,8.5 0,4.6 -3.9,8.5 -8.5,8.5 -4.6,-0.1 -8.5,-3.8 -8.5,-8.5 m 2.2,30 c 0,-4.5 2.8,-7.1 6.5,-7.1 3.7,0 6.5,2.8 6.5,7.1 l 0,62.5 c 0,4.5 -2.8,7.1 -6.5,7.1 -3.7,0 -6.5,-2.8 -6.5,-7.1 l 0,-62.5 z"
       style="fill:#ffffff" /><path
       id="path3006"
       inkscape:connector-curvature="0"
       d="m 661.22968,467 c 0,3.6 -2.8,6.4 -6.5,6.4 -2.5,0 -4.2,-1 -5.8,-3.3 l -3,-4.8 -0.3,0 c -4.9,5.8 -12.2,8.8 -23.2,8.8 -16.8,0 -26.4,-8.3 -26.4,-22.6 0,-15.4 10.7,-23.2 29.4,-23.2 l 17.1,0 c 0.6,0 0.9,-0.3 0.9,-0.9 l 0,-3.6 c 0,-10.4 -4.9,-16.5 -18,-16.5 -5.8,0 -11.9,1.9 -15.4,3.9 -1.3,0.6 -2.8,1 -3.9,1 -3.6,0 -5.8,-2.2 -5.8,-5.8 0,-1.9 0.9,-4.2 3,-5.2 4.8,-3 12.6,-5.8 22.9,-5.8 20,0 29.4,9.7 29.4,28.1 l 0,27 c 0,3.9 0.3,5.5 1.3,7.7 l 2.8,4.9 c 1,1.1 1.5,2.4 1.5,3.9 m -17.8,-19 0,-8.3 c 0,-0.6 -0.3,-0.9 -0.9,-0.9 l -15.1,0 c -12.9,0 -18.7,3.9 -18.7,12.2 0,7.7 5.8,11.9 15.7,11.9 11.5,-0.1 19,-5.6 19,-14.9"
       style="fill:#ffffff" /><path
       id="path3008"
       inkscape:connector-curvature="0"
       d="m 103.02968,239.2 c 0,-6.1 3.9,-10.2 9.9,-10.2 l 33,0 c 23.2,0 34.2,11.6 34.2,28.4 0,11.6 -5.2,18.7 -12.3,22.9 l 0,0.3 c 7.1,2.8 14.3,11.6 14.3,24.2 0,20.9 -14.1,31 -36.8,31 l -31.9,0 c -6.4,0 -9.9,-3.9 -9.9,-9.9 l 0,-86.9 -0.3,0 0,0.2 z m 40.1,33.4 c 8.8,0 14.1,-4.8 14.1,-12.6 0,-8 -5.2,-12.3 -14.1,-12.3 l -16.2,0 c -0.6,0 -0.9,0.3 -0.9,0.9 l 0,23.2 c 0,0.6 0.3,0.9 0.9,0.9 l 16.2,-0.1 0,0 z m -16.2,44.5 17.4,0 c 9.4,0 14.6,-4.9 14.6,-13.5 0,-8 -5.2,-13.2 -14.6,-13.2 l -17.4,0 c -0.6,0 -0.9,0.3 -0.9,0.9 l 0,24.8 c 0,0.4 0.3,1 0.9,1"
       style="fill:#ffffff" /><path
       id="path3010"
       inkscape:connector-curvature="0"
       d="m 239.12968,328.7 0,0 c -3.9,4.9 -10.4,8.8 -20,8.8 -16.8,0 -25.4,-11.9 -25.4,-28.1 l 0,-39.1 c 0,-7.1 4.8,-11.6 11,-11.6 6.2,0 10.7,4.5 10.7,11.6 l 0,34.5 c 0,8.3 3.9,13.8 11.6,13.8 7.7,0 11.6,-5.5 11.6,-13.8 l 0,-34.5 c 0,-7.1 4.8,-11.6 11,-11.6 6.2,0 11,4.5 11,11.6 l 0,54.5 c 0,7.1 -4.8,11.6 -11,11.6 -5.1,0.3 -9.3,-2.8 -10.5,-7.7"
       style="fill:#ffffff" /><path
       id="path3012"
       inkscape:connector-curvature="0"
       d="m 275.22968,315.8 c -1.6,-4.8 -2.5,-10.2 -2.5,-18 0,-8 0.9,-13.5 2.5,-18.1 4.8,-13.8 16.5,-21.5 32.8,-21.5 16.8,0 28.4,7.7 32.8,21.2 1.6,5.2 2.5,10.7 2.5,17.7 0,4.2 -2.8,7.1 -7.1,7.1 l -40.2,0 c -0.6,0 -0.9,0.3 -0.9,0.9 0,1.6 0.3,3 0.9,4.5 1.9,6.4 7.7,9.9 15.7,9.9 5.2,0 10.2,-1.6 14.3,-3.9 2.8,-1.6 5.2,-2.5 7.4,-2.5 4.8,0 8,3.6 8,8.3 0,3.3 -1.6,6.1 -4.5,7.7 -7.1,4.9 -15.7,8.3 -27.5,8.3 -17.8,0.1 -29.7,-8.1 -34.2,-21.6 m 45.2,-26.1 c 0.6,0 0.9,-0.3 0.9,-0.9 0,-2.5 -0.3,-4.2 -0.9,-5.5 -1.6,-5.2 -6.4,-8.3 -12.6,-8.3 -6.2,0 -10.7,3 -12.6,8.3 -0.6,1.6 -0.9,3 -0.9,5.5 0,0.6 0.3,0.9 0.9,0.9 l 25.2,0 z"
       style="fill:#ffffff" /><path
       id="path3014"
       inkscape:connector-curvature="0"
       d="m 400.02968,325.2 0,-34.7 c 0,-8.3 -4.2,-13.8 -11.9,-13.8 -7.7,0 -11.9,5.5 -11.9,13.8 l 0,34.5 c 0,7.1 -4.8,11.6 -11,11.6 -6.2,0 -11,-4.5 -11,-11.6 l 0,-54.5 c 0,-7.1 4.8,-11.6 11,-11.6 5.2,0 9.4,3 10.4,8 l 0.3,0 c 3.9,-4.9 10.4,-8.8 20,-8.8 16.8,0 25.8,11.9 25.8,28.1 l 0,38.8 c 0,7.1 -4.8,11.6 -11,11.6 -6,0.1 -10.7,-4.3 -10.7,-11.4"
       style="fill:#ffffff" /><path
       id="path3016"
       inkscape:connector-curvature="0"
       d="m 435.82968,315.5 c -1.6,-5.5 -2.5,-10.4 -2.5,-18 0,-7.6 0.9,-12.3 2.5,-18 4.8,-14.1 16.2,-21.7 33,-21.7 16.5,0 28.4,7.7 33,21.7 1.6,5.5 2.5,10.4 2.5,18 0,7.6 -0.9,12.3 -2.5,18 -4.8,14.1 -16.2,21.7 -33,21.7 -16.7,0.3 -28.3,-7.6 -33,-21.7 m 44.5,-4.9 c 1,-3.3 1.3,-7.4 1.3,-12.6 0,-5.2 -0.3,-9.4 -1.3,-12.6 -1.6,-5.2 -5.5,-8.5 -11.9,-8.5 -6.1,0 -9.9,3 -11.9,8.5 -1,3.3 -1.3,7.4 -1.3,12.6 0,5.2 0.3,9.4 1.3,12.6 1.6,5.2 5.5,8.5 11.9,8.5 6.4,-0.3 10.3,-3.3 11.9,-8.5"
       style="fill:#ffffff" /><path
       id="path3018"
       inkscape:connector-curvature="0"
       d="m 517.92968,330.1 c -3.9,-2.5 -5.2,-5.2 -5.2,-8.8 0,-4.9 4.2,-8.8 9.1,-8.8 1.9,0 3.9,0.6 6.4,1.9 5.5,3 11.3,5.5 18.7,5.5 8,0 11.9,-2.8 11.9,-7.1 0,-3.6 -1.9,-5.5 -11,-6.4 l -8.3,-0.9 c -16.5,-1.9 -24.8,-9.9 -24.8,-23.2 0,-14.9 11.6,-24.5 31.3,-24.5 8.5,0 16.5,1.6 23.2,4.9 4.2,2.2 6.4,4.9 6.4,8.5 0,4.9 -3.6,8.5 -8.5,8.5 -1.6,0 -3.3,-0.6 -6.4,-1.9 -4.8,-2.2 -9.9,-3.3 -15.4,-3.3 -6.5,0 -9.7,2.5 -9.7,6.1 0,3.6 1.9,5.2 10.4,6.4 l 8.3,0.9 c 18,1.9 25.4,10.4 25.4,23.2 0,15.4 -12.3,25.8 -33.9,25.8 -12.3,0.6 -21.7,-2.7 -27.9,-6.8"
       style="fill:#ffffff" /><path
       id="path3020"
       inkscape:connector-curvature="0"
       d="m 623.02968,321.3 28.8,-79.9 c 3,-8.5 7.7,-13.5 15.7,-13.5 8.3,0 12.9,4.9 16,13.5 l 28.4,79.9 c 0.6,1.3 0.9,2.8 0.9,4.5 0,6.5 -5.2,10.7 -11,10.7 -4.9,0 -9.1,-3 -10.7,-8.3 l -4.5,-12.9 -38,0 -4.2,12.9 c -1.6,5.2 -5.8,8.3 -10.7,8.3 -5.8,0 -11,-4.2 -11,-10.7 -0.6,-1.5 -0.3,-3.2 0.3,-4.5 m 57,-25.4 -12.2,-37.1 -0.6,0 -12.3,37.1 25.1,0 0,0 z"
       style="fill:#ffffff" /><path
       id="path3022"
       inkscape:connector-curvature="0"
       d="m 721.32968,239.8 c 0,-6.8 5.5,-12.3 12.3,-12.3 6.8,0 12.3,5.5 12.3,12.3 0,6.8 -5.5,12.3 -12.3,12.3 -6.8,0.1 -12.3,-5.4 -12.3,-12.3 m 1.4,85.4 0,-54.8 c 0,-7.1 4.8,-11.6 11,-11.6 6.4,0 11,4.5 11,11.6 l 0,54.5 c 0,7.1 -4.8,11.6 -11,11.6 -6.4,0.2 -11,-4.2 -11,-11.3"
       style="fill:#ffffff" /><path
       id="path3024"
       inkscape:connector-curvature="0"
       d="m 760.72968,325.2 0,-54.8 c 0,-7.1 4.8,-11.6 11,-11.6 5.2,0 9.4,3 10.7,8.5 l 0,0.3 0.3,0 c 3.6,-4.9 10.4,-9.4 19,-9.4 3.6,0 6.1,0.6 8,1.6 3.9,1.9 5.8,5.2 5.8,8.8 0,6.4 -4.5,11 -10.7,11 -1.6,0 -3,-0.3 -4.8,-0.9 -1.6,-0.6 -3.9,-0.9 -5.5,-0.9 -8.3,0 -11.6,5.8 -11.6,16 l 0,30.9 c 0,7.1 -4.8,11.6 -11,11.6 -6.9,0.4 -11.2,-4 -11.2,-11.1"
       style="fill:#ffffff" /><path
       id="path3026"
       inkscape:connector-curvature="0"
       d="m 819.32968,315.8 c -1.6,-4.8 -2.5,-10.2 -2.5,-18 0,-8 0.9,-13.5 2.5,-18.1 4.8,-13.8 16.5,-21.5 32.8,-21.5 16.8,0 28.4,7.7 32.8,21.2 1.6,5.2 2.5,10.7 2.5,17.7 0,4.2 -2.8,7.1 -7.1,7.1 l -40.2,0 c -0.6,0 -0.9,0.3 -0.9,0.9 0,1.6 0.3,3 0.9,4.5 1.9,6.4 7.7,9.9 15.7,9.9 5.2,0 10.2,-1.6 14.3,-3.9 2.8,-1.6 5.2,-2.5 7.4,-2.5 4.8,0 8,3.6 8,8.3 0,3.3 -1.6,6.1 -4.5,7.7 -7.1,4.9 -15.7,8.3 -27.5,8.3 -18,0.1 -30.2,-8.1 -34.2,-21.6 m 45.2,-26.1 c 0.6,0 0.9,-0.3 0.9,-0.9 0,-2.5 -0.3,-4.2 -0.9,-5.5 -1.6,-5.2 -6.4,-8.3 -12.6,-8.3 -6.4,0 -10.7,3 -12.6,8.3 -0.6,1.6 -0.9,3 -0.9,5.5 0,0.6 0.3,0.9 0.9,0.9 l 25.2,0 z"
       style="fill:#ffffff" /><path
       id="path3028"
       inkscape:connector-curvature="0"
       d="m 900.72968,330.1 c -3.9,-2.5 -5.2,-5.2 -5.2,-8.8 0,-4.9 4.2,-8.8 9.1,-8.8 1.9,0 3.9,0.6 6.4,1.9 5.5,3 11.3,5.5 18.7,5.5 8,0 11.89996,-2.8 11.89996,-7.1 0,-3.6 -1.89998,-5.5 -10.99996,-6.4 l -8.3,-0.9 c -16.5,-1.9 -24.8,-9.9 -24.8,-23.2 0,-14.9 11.6,-24.5 31.3,-24.5 8.5,0 16.49994,1.6 23.1999,4.9 4.19998,2.2 6.39998,4.9 6.39998,8.5 0,4.9 -3.59998,8.5 -8.49996,8.5 -1.59998,0 -3.29998,-0.6 -6.39996,-1.9 -4.79998,-2.2 -9.89996,-3.3 -15.39996,-3.3 -6.5,0 -9.7,2.5 -9.7,6.1 0,3.6 1.9,5.2 10.4,6.4 l 8.3,0.9 c 17.9999,1.9 25.39984,10.4 25.39984,23.2 0,15.4 -12.29992,25.8 -33.89984,25.8 -12.1,0.6 -21.8,-2.7 -27.9,-6.8"
       style="fill:#ffffff" /></g></svg>