<?xml version="1.0" encoding="utf-8"?>
<!-- Generator: Adobe Illustrator 18.0.0, SVG Export Plug-In . SVG Version: 6.00 Build 0)  -->
<!DOCTYPE svg PUBLIC "-//W3C//DTD SVG 1.1//EN" "http://www.w3.org/Graphics/SVG/1.1/DTD/svg11.dtd">
<svg version="1.1"
	 id="Capa_1" inkscape:version="0.91 r13725" sodipodi:docname="ba_logo2.svg" xmlns:rdf="http://www.w3.org/1999/02/22-rdf-syntax-ns#" xmlns:svg="http://www.w3.org/2000/svg" xmlns:sodipodi="http://sodipodi.sourceforge.net/DTD/sodipodi-0.dtd" xmlns:dc="http://purl.org/dc/elements/1.1/" xmlns:cc="http://creativecommons.org/ns#" xmlns:inkscape="http://www.inkscape.org/namespaces/inkscape"
	 xmlns="http://www.w3.org/2000/svg" xmlns:xlink="http://www.w3.org/1999/xlink" x="0px" y="0px" viewBox="-40.2 137.8 769.2 303"
	 enable-background="new -40.2 137.8 769.2 303" xml:space="preserve">
<sodipodi:namedview  id="namedview25" inkscape:current-layer="g3037" inkscape:window-maximized="1" inkscape:window-y="-8" inkscape:pageshadow="2" inkscape:window-x="-8" inkscape:window-height="705" inkscape:window-width="1366" inkscape:pageopacity="0" inkscape:cx="220.83467" showgrid="false" bordercolor="#666666" inkscape:zoom="0.7109391" guidetolerance="10" borderopacity="1" objecttolerance="10" pagecolor="#ffffff" gridtolerance="10" inkscape:cy="81.150002">
	</sodipodi:namedview>
<g id="g3037" transform="matrix(0.5821942,0,0,0.5821942,130.62751,76.770452)">
	<path id="path2988" inkscape:connector-curvature="0" fill="#ACC12F" d="M80.3,345.9c0-8-4.2-15.1-10.7-19.3l0,0
		c-8.6-5.3-14.4-14.9-14.4-26c0-6.5,2.2-12.8,5.9-17.8l0,0c2.7-3.7,4.2-8.3,4.2-12.9c0-5.9-2.2-11-5.6-15.1
		c-4.5-5.3-36.7-46.2-121.3-96.7c-4.6-3-10.2-4.6-16.2-4.6c-6.8,0-12.9,2.2-18.1,5.9l0,0l-51.2,36.5l0,0l0,0
		c-4.6,3.1-10.5,4.9-16.3,4.9h-38.2c-12.8,0-22.7,10.2-22.7,22.7v308.7c0,5.6,1.9,10.7,5.3,14.7c3.1,4.2,11.7,11.4,20.5,16.6
		c3.4,2.2,7.9,3.7,12.2,3.7c12.8,0,22.7-10.2,22.7-22.7v-61.2c0-12.8,10.2-22.7,22.7-22.7c3.7,0,6.8,0.7,10.1,2.2l0,0
		c18.4,7.9,38.6,12,60,12C3.7,475,65.9,422,80,351.1C80,349.7,80.3,347.9,80.3,345.9"/>
	<path id="path2990" inkscape:connector-curvature="0" fill="#FFFFFF" d="M168.3,371.9c0-3.9,2.5-6.4,6.4-6.4h33
		c21.2,0,34.2,12.9,34.2,31.9c0,19-12.9,31.9-34.2,31.9h-24.2c-0.6,0-0.9,0.3-0.9,0.9v35.2c0,4.8-2.8,7.4-6.8,7.4s-7.1-2.8-7.1-7.4
		v-93.6L168.3,371.9L168.3,371.9z M228,397.5c0-11.6-7.7-18.7-20.9-18.7h-23.9c-0.6,0-0.9,0.3-0.9,0.9v35.8c0,0.6,0.3,0.9,0.9,0.9
		H207C220.2,416.3,228,409.1,228,397.5"/>
	<path id="path2992" inkscape:connector-curvature="0" fill="#FFFFFF" d="M252.2,466.1v-62.5c0-4.5,2.8-7.1,6.5-7.1
		c3.7,0,6.5,2.8,6.5,7.1v3.6h0.3c3-6.5,9.9-11.6,19.3-11.6c5.2,0,8.5,1.3,11,2.8c2.8,1.3,3.9,3.6,3.9,5.8c0,3.9-2.8,6.5-6.5,6.5
		c-0.9,0-2.2-0.3-3.3-0.9c-2.8-1-5.5-1.9-8.5-1.9c-11.3,0-16,9.4-16,22v36.4c0,4.5-2.8,7.1-6.5,7.1
		C255,473.2,252.2,470.5,252.2,466.1"/>
	<path id="path2994" inkscape:connector-curvature="0" fill="#FFFFFF" d="M307.3,454.1c-1.6-5.2-2.5-10.4-2.5-19
		c0-8.6,0.9-13.8,2.5-19c4.2-12.9,15.1-20,29.7-20c14.6,0,25.5,7.4,29.7,20c1.6,5.2,2.5,10.4,2.5,19c0,8.8-0.9,14.1-2.5,19
		c-4.2,12.6-15.1,20-29.7,20C322.1,474.1,311.4,466.7,307.3,454.1 M353.7,450.2c1.3-4.2,1.6-8.3,1.6-15.4c0-7.1-0.6-11-1.6-15.1
		c-2.5-7.4-8.5-11.9-17.1-11.9c-8.3,0-14.3,4.2-17.1,11.9c-1.3,4.2-1.6,8-1.6,15.1s0.6,11.3,1.6,15.4c2.5,7.4,8.5,11.9,17.1,11.9
		C345.3,462.1,351.4,457.6,353.7,450.2"/>
	<path id="path2996" inkscape:connector-curvature="0" fill="#FFFFFF" d="M399.2,465l-22.9-59c-0.6-1.3-0.6-2.2-0.6-3.3
		c0-3.6,2.5-6.4,6.4-6.4c3,0,5.2,1.9,6.4,4.8l19.6,52.3h0.3l19-52.3c1-2.8,3-4.8,6.4-4.8c3.9,0,6.4,2.8,6.4,6.4c0,1-0.3,1.9-0.6,3.3
		l-22.9,59c-2.5,6.1-4.5,8.3-8.5,8.3C403.6,473.2,401.7,471,399.2,465"/>
	<path id="path2998" inkscape:connector-curvature="0" fill="#FFFFFF" d="M450.1,373.6c0-4.9,3.9-8.5,8.5-8.5c4.8,0,8.5,3.9,8.5,8.5
		s-3.9,8.5-8.5,8.5C454,382.2,450.1,378.3,450.1,373.6 M452.3,403.6c0-4.5,2.8-7.1,6.5-7.1c3.7,0,6.5,2.8,6.5,7.1v62.5
		c0,4.5-2.8,7.1-6.5,7.1c-3.7,0-6.5-2.8-6.5-7.1V403.6z"/>
	<path id="path3000" inkscape:connector-curvature="0" fill="#FFFFFF" d="M484.9,403.6c0-4.5,2.8-7.1,6.5-7.1c3.7,0,6.5,2.8,6.5,7.1
		v2.2h0.3c3.6-5.8,10.7-10.2,20.9-10.2c16.2,0,26.1,11,26.1,28.4v42.5c0,4.5-2.8,7.1-6.5,7.1c-3.9,0-6.5-2.8-6.5-7.1v-39.1
		c0-12.2-5.5-19-16.8-19c-10.2,0-17.4,7.1-17.4,18.4v39.9c0,4.5-2.8,7.1-6.5,7.1c-3.9,0-6.5-2.8-6.5-7.1L484.9,403.6L484.9,403.6z"
		/>
	<path id="path3002" inkscape:connector-curvature="0" fill="#FFFFFF" d="M562.5,454.1c-1.3-4.8-2.5-10.7-2.5-19s0.9-14.3,2.5-19
		c4.2-12.9,15.1-20,29.7-20c11.3,0,19.3,4.9,23.9,11c1.3,1.6,1.9,3,1.9,4.9c0,3.3-2.5,5.8-5.8,5.8c-2.5,0-4.2-1.3-5.8-3
		c-3.6-3.9-7.4-6.4-14.3-6.4c-8.3,0-14.3,3.9-16.8,11.9c-1.3,3.9-1.6,8.5-1.6,15.1c0,6.5,0.6,11.6,1.6,15.4
		c2.5,7.7,8.5,11.9,16.8,11.9c6.5,0,10.7-2.5,14.3-6.4c1.6-1.9,3.6-3,5.8-3c3.3,0,5.8,2.5,5.8,5.8c0,1.6-0.6,3-1.9,4.9
		c-4.8,6.1-12.6,11-23.9,11C577.7,474.1,566.5,467,562.5,454.1"/>
	<path id="path3004" inkscape:connector-curvature="0" fill="#FFFFFF" d="M631,373.6c0-4.9,3.9-8.5,8.5-8.5c4.6,0,8.5,3.9,8.5,8.5
		s-3.9,8.5-8.5,8.5C634.9,382,631,378.3,631,373.6 M633.2,403.6c0-4.5,2.8-7.1,6.5-7.1s6.5,2.8,6.5,7.1v62.5c0,4.5-2.8,7.1-6.5,7.1
		s-6.5-2.8-6.5-7.1V403.6z"/>
	<path id="path3006" inkscape:connector-curvature="0" fill="#FFFFFF" d="M726.5,467c0,3.6-2.8,6.4-6.5,6.4c-2.5,0-4.2-1-5.8-3.3
		l-3-4.8h-0.3c-4.9,5.8-12.2,8.8-23.2,8.8c-16.8,0-26.4-8.3-26.4-22.6c0-15.4,10.7-23.2,29.4-23.2h17.1c0.6,0,0.9-0.3,0.9-0.9v-3.6
		c0-10.4-4.9-16.5-18-16.5c-5.8,0-11.9,1.9-15.4,3.9c-1.3,0.6-2.8,1-3.9,1c-3.6,0-5.8-2.2-5.8-5.8c0-1.9,0.9-4.2,3-5.2
		c4.8-3,12.6-5.8,22.9-5.8c20,0,29.4,9.7,29.4,28.1v27c0,3.9,0.3,5.5,1.3,7.7l2.8,4.9C726,464.2,726.5,465.5,726.5,467 M708.7,448
		v-8.3c0-0.6-0.3-0.9-0.9-0.9h-15.1c-12.9,0-18.7,3.9-18.7,12.2c0,7.7,5.8,11.9,15.7,11.9C701.2,462.8,708.7,457.3,708.7,448"/>
	<path id="path3008" inkscape:connector-curvature="0" fill="#FFFFFF" d="M168.3,239.2c0-6.1,3.9-10.2,9.9-10.2h33
		c23.2,0,34.2,11.6,34.2,28.4c0,11.6-5.2,18.7-12.3,22.9v0.3c7.1,2.8,14.3,11.6,14.3,24.2c0,20.9-14.1,31-36.8,31h-31.9
		c-6.4,0-9.9-3.9-9.9-9.9V239h-0.3V239.2z M208.4,272.6c8.8,0,14.1-4.8,14.1-12.6c0-8-5.2-12.3-14.1-12.3h-16.2
		c-0.6,0-0.9,0.3-0.9,0.9v23.2c0,0.6,0.3,0.9,0.9,0.9L208.4,272.6L208.4,272.6z M192.2,317.1h17.4c9.4,0,14.6-4.9,14.6-13.5
		c0-8-5.2-13.2-14.6-13.2h-17.4c-0.6,0-0.9,0.3-0.9,0.9v24.8C191.3,316.5,191.6,317.1,192.2,317.1"/>
	<path id="path3010" inkscape:connector-curvature="0" fill="#FFFFFF" d="M304.4,328.7L304.4,328.7c-3.9,4.9-10.4,8.8-20,8.8
		c-16.8,0-25.4-11.9-25.4-28.1v-39.1c0-7.1,4.8-11.6,11-11.6c6.2,0,10.7,4.5,10.7,11.6v34.5c0,8.3,3.9,13.8,11.6,13.8
		c7.7,0,11.6-5.5,11.6-13.8v-34.5c0-7.1,4.8-11.6,11-11.6c6.2,0,11,4.5,11,11.6v54.5c0,7.1-4.8,11.6-11,11.6
		C309.8,336.7,305.6,333.6,304.4,328.7"/>
	<path id="path3012" inkscape:connector-curvature="0" fill="#FFFFFF" d="M340.5,315.8c-1.6-4.8-2.5-10.2-2.5-18
		c0-8,0.9-13.5,2.5-18.1c4.8-13.8,16.5-21.5,32.8-21.5c16.8,0,28.4,7.7,32.8,21.2c1.6,5.2,2.5,10.7,2.5,17.7c0,4.2-2.8,7.1-7.1,7.1
		h-40.2c-0.6,0-0.9,0.3-0.9,0.9c0,1.6,0.3,3,0.9,4.5c1.9,6.4,7.7,9.9,15.7,9.9c5.2,0,10.2-1.6,14.3-3.9c2.8-1.6,5.2-2.5,7.4-2.5
		c4.8,0,8,3.6,8,8.3c0,3.3-1.6,6.1-4.5,7.7c-7.1,4.9-15.7,8.3-27.5,8.3C356.9,337.5,345,329.3,340.5,315.8 M385.7,289.7
		c0.6,0,0.9-0.3,0.9-0.9c0-2.5-0.3-4.2-0.9-5.5c-1.6-5.2-6.4-8.3-12.6-8.3c-6.2,0-10.7,3-12.6,8.3c-0.6,1.6-0.9,3-0.9,5.5
		c0,0.6,0.3,0.9,0.9,0.9H385.7z"/>
	<path id="path3014" inkscape:connector-curvature="0" fill="#FFFFFF" d="M465.3,325.2v-34.7c0-8.3-4.2-13.8-11.9-13.8
		s-11.9,5.5-11.9,13.8v34.5c0,7.1-4.8,11.6-11,11.6s-11-4.5-11-11.6v-54.5c0-7.1,4.8-11.6,11-11.6c5.2,0,9.4,3,10.4,8h0.3
		c3.9-4.9,10.4-8.8,20-8.8c16.8,0,25.8,11.9,25.8,28.1v38.8c0,7.1-4.8,11.6-11,11.6C470,336.7,465.3,332.3,465.3,325.2"/>
	<path id="path3016" inkscape:connector-curvature="0" fill="#FFFFFF" d="M501.1,315.5c-1.6-5.5-2.5-10.4-2.5-18
		c0-7.6,0.9-12.3,2.5-18c4.8-14.1,16.2-21.7,33-21.7c16.5,0,28.4,7.7,33,21.7c1.6,5.5,2.5,10.4,2.5,18c0,7.6-0.9,12.3-2.5,18
		c-4.8,14.1-16.2,21.7-33,21.7C517.4,337.5,505.8,329.6,501.1,315.5 M545.6,310.6c1-3.3,1.3-7.4,1.3-12.6s-0.3-9.4-1.3-12.6
		c-1.6-5.2-5.5-8.5-11.9-8.5c-6.1,0-9.9,3-11.9,8.5c-1,3.3-1.3,7.4-1.3,12.6s0.3,9.4,1.3,12.6c1.6,5.2,5.5,8.5,11.9,8.5
		C540.1,318.8,544,315.8,545.6,310.6"/>
	<path id="path3018" inkscape:connector-curvature="0" fill="#FFFFFF" d="M583.2,330.1c-3.9-2.5-5.2-5.2-5.2-8.8
		c0-4.9,4.2-8.8,9.1-8.8c1.9,0,3.9,0.6,6.4,1.9c5.5,3,11.3,5.5,18.7,5.5c8,0,11.9-2.8,11.9-7.1c0-3.6-1.9-5.5-11-6.4l-8.3-0.9
		c-16.5-1.9-24.8-9.9-24.8-23.2c0-14.9,11.6-24.5,31.3-24.5c8.5,0,16.5,1.6,23.2,4.9c4.2,2.2,6.4,4.9,6.4,8.5c0,4.9-3.6,8.5-8.5,8.5
		c-1.6,0-3.3-0.6-6.4-1.9c-4.8-2.2-9.9-3.3-15.4-3.3c-6.5,0-9.7,2.5-9.7,6.1c0,3.6,1.9,5.2,10.4,6.4l8.3,0.9
		c18,1.9,25.4,10.4,25.4,23.2c0,15.4-12.3,25.8-33.9,25.8C598.8,337.5,589.4,334.2,583.2,330.1"/>
	<path id="path3020" inkscape:connector-curvature="0" fill="#FFFFFF" d="M688.3,321.3l28.8-79.9c3-8.5,7.7-13.5,15.7-13.5
		c8.3,0,12.9,4.9,16,13.5l28.4,79.9c0.6,1.3,0.9,2.8,0.9,4.5c0,6.5-5.2,10.7-11,10.7c-4.9,0-9.1-3-10.7-8.3l-4.5-12.9h-38l-4.2,12.9
		c-1.6,5.2-5.8,8.3-10.7,8.3c-5.8,0-11-4.2-11-10.7C687.4,324.3,687.7,322.6,688.3,321.3 M745.3,295.9l-12.2-37.1h-0.6l-12.3,37.1
		H745.3L745.3,295.9z"/>
	<path id="path3022" inkscape:connector-curvature="0" fill="#FFFFFF" d="M786.6,239.8c0-6.8,5.5-12.3,12.3-12.3
		c6.8,0,12.3,5.5,12.3,12.3c0,6.8-5.5,12.3-12.3,12.3C792.1,252.2,786.6,246.7,786.6,239.8 M788,325.2v-54.8c0-7.1,4.8-11.6,11-11.6
		c6.4,0,11,4.5,11,11.6v54.5c0,7.1-4.8,11.6-11,11.6C792.6,336.7,788,332.3,788,325.2"/>
	<path id="path3024" inkscape:connector-curvature="0" fill="#FFFFFF" d="M826,325.2v-54.8c0-7.1,4.8-11.6,11-11.6
		c5.2,0,9.4,3,10.7,8.5v0.3h0.3c3.6-4.9,10.4-9.4,19-9.4c3.6,0,6.1,0.6,8,1.6c3.9,1.9,5.8,5.2,5.8,8.8c0,6.4-4.5,11-10.7,11
		c-1.6,0-3-0.3-4.8-0.9c-1.6-0.6-3.9-0.9-5.5-0.9c-8.3,0-11.6,5.8-11.6,16v30.9c0,7.1-4.8,11.6-11,11.6
		C830.3,336.7,826,332.3,826,325.2"/>
	<path id="path3026" inkscape:connector-curvature="0" fill="#FFFFFF" d="M884.6,315.8c-1.6-4.8-2.5-10.2-2.5-18
		c0-8,0.9-13.5,2.5-18.1c4.8-13.8,16.5-21.5,32.8-21.5c16.8,0,28.4,7.7,32.8,21.2c1.6,5.2,2.5,10.7,2.5,17.7c0,4.2-2.8,7.1-7.1,7.1
		h-40.2c-0.6,0-0.9,0.3-0.9,0.9c0,1.6,0.3,3,0.9,4.5c1.9,6.4,7.7,9.9,15.7,9.9c5.2,0,10.2-1.6,14.3-3.9c2.8-1.6,5.2-2.5,7.4-2.5
		c4.8,0,8,3.6,8,8.3c0,3.3-1.6,6.1-4.5,7.7c-7.1,4.9-15.7,8.3-27.5,8.3C900.8,337.5,888.6,329.3,884.6,315.8 M929.8,289.7
		c0.6,0,0.9-0.3,0.9-0.9c0-2.5-0.3-4.2-0.9-5.5c-1.6-5.2-6.4-8.3-12.6-8.3c-6.4,0-10.7,3-12.6,8.3c-0.6,1.6-0.9,3-0.9,5.5
		c0,0.6,0.3,0.9,0.9,0.9H929.8z"/>
	<path id="path3028" inkscape:connector-curvature="0" fill="#FFFFFF" d="M966,330.1c-3.9-2.5-5.2-5.2-5.2-8.8
		c0-4.9,4.2-8.8,9.1-8.8c1.9,0,3.9,0.6,6.4,1.9c5.5,3,11.3,5.5,18.7,5.5c8,0,11.9-2.8,11.9-7.1c0-3.6-1.9-5.5-11-6.4l-8.3-0.9
		c-16.5-1.9-24.8-9.9-24.8-23.2c0-14.9,11.6-24.5,31.3-24.5c8.5,0,16.5,1.6,23.2,4.9c4.2,2.2,6.4,4.9,6.4,8.5c0,4.9-3.6,8.5-8.5,8.5
		c-1.6,0-3.3-0.6-6.4-1.9c-4.8-2.2-9.9-3.3-15.4-3.3c-6.5,0-9.7,2.5-9.7,6.1c0,3.6,1.9,5.2,10.4,6.4l8.3,0.9
		c18,1.9,25.4,10.4,25.4,23.2c0,15.4-12.3,25.8-33.9,25.8C981.8,337.5,972.1,334.2,966,330.1"/>
</g>
</svg>
