<?xml version="1.0" encoding="utf-8"?>
<!-- Generator: Adobe Illustrator 18.0.0, SVG Export Plug-In . SVG Version: 6.00 Build 0)  -->
<!DOCTYPE svg PUBLIC "-//W3C//DTD SVG 1.1//EN" "http://www.w3.org/Graphics/SVG/1.1/DTD/svg11.dtd">
<svg version="1.1" id="Capa_1" xmlns="http://www.w3.org/2000/svg" xmlns:xlink="http://www.w3.org/1999/xlink" x="0px" y="0px"
	 viewBox="460.9 252.1 358.6 118.5" enable-background="new 460.9 252.1 358.6 118.5" xml:space="preserve">
<g id="layer1_1_" transform="translate(-130.6498,-70.778354)" inkscape:groupmode="layer" inkscape:label="Capa 1">
	<g id="g3037_1_" transform="matrix(0.5821942,0,0,0.5821942,130.62751,76.770452)">
		<path id="path2988_1_" inkscape:connector-curvature="0" fill="#ACC12F" d="M941.6,517.4c0-4-2-7.5-5.3-9.5l0,0
			c-4.2-2.6-7.1-7.3-7.1-12.8c0-3.2,1.1-6.3,2.9-8.8l0,0c1.3-1.8,2-4.1,2-6.4c0-2.9-1.1-5.4-2.8-7.5c-2.2-2.6-18.1-22.7-59.7-47.5
			c-2.3-1.4-5.1-2.3-7.9-2.3c-3.4,0-6.4,1.1-8.9,2.9l0,0l-25.2,18.1l0,0l0,0c-2.3,1.6-5.2,2.4-8.1,2.4h-18.8
			c-6.3,0-11.2,5.1-11.2,11.2v151.9c0,2.8,1,5.3,2.6,7.2c1.6,2,5.8,5.7,10.1,8.2c1.7,1.1,3.9,1.8,6,1.8c6.3,0,11.2-5.1,11.2-11.2
			V585c0-6.3,5.1-11.2,11.2-11.2c1.8,0,3.4,0.4,4.9,1.1l0,0c9,3.9,19,5.9,29.5,5.9c36.7,0,67.3-26.1,74.2-60.9
			C941.5,519.2,941.6,518.4,941.6,517.4"/>
		<path id="path2990_1_" inkscape:connector-curvature="0" fill="#FFFFFF" d="M984.9,530.2c0-1.9,1.2-3.1,3.1-3.1h16.3
			c10.4,0,16.8,6.4,16.8,15.7c0,9.3-6.4,15.7-16.8,15.7h-11.9c-0.3,0-0.4,0.1-0.4,0.4v17.3c0,2.3-1.4,3.7-3.4,3.7s-3.5-1.4-3.5-3.7
			v-46H984.9z M1014.3,542.8c0-5.7-3.8-9.2-10.3-9.2h-11.8c-0.3,0-0.4,0.1-0.4,0.4v17.6c0,0.3,0.1,0.4,0.4,0.4h11.8
			C1010.5,552,1014.3,548.5,1014.3,542.8"/>
		<path id="path2992_1_" inkscape:connector-curvature="0" fill="#FFFFFF" d="M1026.2,576.5v-30.7c0-2.2,1.4-3.5,3.3-3.5
			c1.9,0,3.3,1.4,3.3,3.5v1.8h0.1c1.5-3.3,4.9-5.7,9.5-5.7c2.6,0,4.2,0.7,5.4,1.4c1.4,0.7,1.9,1.8,1.9,2.8c0,1.9-1.4,3.3-3.3,3.3
			c-0.4,0-1.1-0.1-1.6-0.4c-1.4-0.5-2.7-0.9-4.2-0.9c-5.6,0-7.9,4.6-7.9,10.8v17.9c0,2.2-1.4,3.5-3.3,3.5
			C1027.5,580,1026.2,578.7,1026.2,576.5"/>
		<path id="path2994_1_" inkscape:connector-curvature="0" fill="#FFFFFF" d="M1053.3,570.6c-0.8-2.6-1.2-5.1-1.2-9.3
			c0-4.2,0.4-6.8,1.2-9.3c2-6.4,7.4-9.9,14.6-9.9s12.6,3.7,14.6,9.9c0.8,2.6,1.2,5.1,1.2,9.3c0,4.3-0.4,6.9-1.2,9.3
			c-2,6.2-7.4,9.9-14.6,9.9C1060.6,580.4,1055.3,576.8,1053.3,570.6 M1076.2,568.7c0.7-2,0.8-4.1,0.8-7.6c0-3.5-0.3-5.4-0.8-7.4
			c-1.2-3.7-4.2-5.8-8.4-5.8c-4.1,0-7,2-8.4,5.8c-0.7,2-0.8,3.9-0.8,7.4c0,3.5,0.3,5.6,0.8,7.6c1.2,3.7,4.2,5.8,8.4,5.8
			C1072,574.5,1074.9,572.3,1076.2,568.7"/>
		<path id="path2996_1_" inkscape:connector-curvature="0" fill="#FFFFFF" d="M1098.5,576l-11.2-29c-0.3-0.7-0.3-1.1-0.3-1.6
			c0-1.8,1.2-3.1,3.1-3.1c1.5,0,2.6,0.9,3.1,2.3l9.6,25.7h0.1l9.3-25.7c0.5-1.4,1.5-2.3,3.1-2.3c1.9,0,3.1,1.4,3.1,3.1
			c0,0.5-0.1,0.9-0.3,1.6l-11.2,29c-1.2,3-2.2,4.1-4.2,4.1C1100.7,580,1099.7,579,1098.5,576"/>
		<path id="path2998_1_" inkscape:connector-curvature="0" fill="#FFFFFF" d="M1123.6,531c0-2.4,1.9-4.2,4.2-4.2s4.2,1.9,4.2,4.2
			c0,2.3-1.9,4.2-4.2,4.2S1123.6,533.3,1123.6,531 M1124.6,545.8c0-2.2,1.4-3.5,3.3-3.5c1.9,0,3.3,1.4,3.3,3.5v30.7
			c0,2.2-1.4,3.5-3.3,3.5c-1.9,0-3.3-1.4-3.3-3.5V545.8z"/>
		<path id="path3000_1_" inkscape:connector-curvature="0" fill="#FFFFFF" d="M1140.6,545.8c0-2.2,1.4-3.5,3.3-3.5
			c1.9,0,3.3,1.4,3.3,3.5v1.1h0.1c1.8-2.8,5.3-5,10.3-5c8,0,12.9,5.4,12.9,13.9v20.9c0,2.2-1.4,3.5-3.3,3.5c-1.9,0-3.3-1.4-3.3-3.5
			v-19.2c0-6-2.7-9.3-8.3-9.3c-5,0-8.5,3.5-8.5,9.1v19.6c0,2.2-1.4,3.5-3.3,3.5c-1.9,0-3.3-1.4-3.3-3.5V545.8L1140.6,545.8z"/>
		<path id="path3002_1_" inkscape:connector-curvature="0" fill="#FFFFFF" d="M1178.8,570.6c-0.7-2.3-1.2-5.3-1.2-9.3s0.4-7,1.2-9.3
			c2-6.4,7.4-9.9,14.6-9.9c5.6,0,9.5,2.4,11.8,5.4c0.7,0.8,0.9,1.5,0.9,2.4c0,1.6-1.2,2.8-2.8,2.8c-1.2,0-2-0.7-2.8-1.5
			c-1.8-1.9-3.7-3.1-7-3.1c-4.1,0-7,1.9-8.3,5.8c-0.7,1.9-0.8,4.2-0.8,7.4c0,3.3,0.3,5.7,0.8,7.6c1.2,3.8,4.2,5.8,8.3,5.8
			c3.3,0,5.3-1.2,7-3.1c0.8-0.9,1.8-1.5,2.8-1.5c1.6,0,2.8,1.2,2.8,2.8c0,0.8-0.3,1.5-0.9,2.4c-2.3,3-6.2,5.4-11.8,5.4
			C1186.3,580.4,1180.9,576.9,1178.8,570.6"/>
		<path id="path3004_1_" inkscape:connector-curvature="0" fill="#FFFFFF" d="M1212.5,531c0-2.4,1.9-4.2,4.2-4.2s4.2,1.9,4.2,4.2
			c0,2.3-1.9,4.2-4.2,4.2S1212.5,533.3,1212.5,531 M1213.6,545.8c0-2.2,1.4-3.5,3.3-3.5c1.9,0,3.3,1.4,3.3,3.5v30.7
			c0,2.2-1.4,3.5-3.3,3.5c-1.9,0-3.3-1.4-3.3-3.5V545.8z"/>
		<path id="path3006_1_" inkscape:connector-curvature="0" fill="#FFFFFF" d="M1259.5,576.9c0,1.8-1.4,3.1-3.3,3.1
			c-1.2,0-2-0.5-2.8-1.6l-1.5-2.3h-0.1c-2.4,2.8-6,4.3-11.4,4.3c-8.3,0-13-4.1-13-11.1c0-7.6,5.3-11.4,14.5-11.4h8.4
			c0.3,0,0.4-0.1,0.4-0.4v-1.8c0-5.1-2.4-8.1-8.8-8.1c-2.8,0-5.8,0.9-7.6,1.9c-0.7,0.3-1.4,0.5-1.9,0.5c-1.8,0-2.8-1.1-2.8-2.8
			c0-0.9,0.4-2,1.5-2.6c2.3-1.5,6.2-2.8,11.2-2.8c9.9,0,14.5,4.7,14.5,13.8v13.3c0,1.9,0.1,2.7,0.7,3.8l1.4,2.4
			C1259.3,575.6,1259.5,576.2,1259.5,576.9 M1250.7,567.6v-4.1c0-0.3-0.1-0.4-0.4-0.4h-7.4c-6.4,0-9.2,1.9-9.2,6
			c0,3.8,2.8,5.8,7.7,5.8C1247.1,574.9,1250.7,572.2,1250.7,567.6"/>
		<path id="path3008_1_" inkscape:connector-curvature="0" fill="#FFFFFF" d="M984.9,464.9c0-3,1.9-5,4.9-5h16.3
			c11.4,0,16.8,5.7,16.8,13.9c0,5.7-2.6,9.2-6.1,11.2v0.1c3.5,1.4,7,5.7,7,11.9c0,10.3-6.9,15.3-18.1,15.3h-15.7
			c-3.1,0-4.9-1.9-4.9-4.9v-42.7H984.9z M1004.7,481.3c4.3,0,6.9-2.3,6.9-6.2s-2.6-6.1-6.9-6.1h-8c-0.3,0-0.4,0.1-0.4,0.4v11.4
			c0,0.3,0.1,0.4,0.4,0.4h8V481.3z M996.7,503.2h8.5c4.6,0,7.2-2.4,7.2-6.6c0-3.9-2.6-6.5-7.2-6.5h-8.5c-0.3,0-0.4,0.1-0.4,0.4v12.2
			C996.3,503,996.4,503.2,996.7,503.2"/>
		<path id="path3010_1_" inkscape:connector-curvature="0" fill="#FFFFFF" d="M1051.9,508.9L1051.9,508.9c-1.9,2.4-5.1,4.3-9.9,4.3
			c-8.3,0-12.5-5.8-12.5-13.8v-19.2c0-3.5,2.3-5.7,5.4-5.7c3.1,0,5.3,2.2,5.3,5.7v16.9c0,4.1,1.9,6.8,5.7,6.8c3.8,0,5.7-2.7,5.7-6.8
			v-16.9c0-3.5,2.3-5.7,5.4-5.7c3.1,0,5.4,2.2,5.4,5.7V507c0,3.5-2.3,5.7-5.4,5.7C1054.5,512.9,1052.5,511.4,1051.9,508.9"/>
		<path id="path3012_1_" inkscape:connector-curvature="0" fill="#FFFFFF" d="M1069.7,502.6c-0.8-2.3-1.2-5-1.2-8.8
			c0-3.9,0.4-6.6,1.2-8.9c2.3-6.8,8.1-10.6,16.1-10.6c8.3,0,13.9,3.8,16.1,10.4c0.8,2.6,1.2,5.3,1.2,8.7c0,2-1.4,3.5-3.5,3.5h-19.8
			c-0.3,0-0.4,0.1-0.4,0.4c0,0.8,0.1,1.5,0.4,2.2c0.9,3.1,3.8,4.9,7.7,4.9c2.6,0,5-0.8,7-1.9c1.4-0.8,2.6-1.2,3.7-1.2
			c2.3,0,3.9,1.8,3.9,4.1c0,1.6-0.8,3-2.2,3.8c-3.5,2.4-7.7,4.1-13.5,4.1C1077.7,513.3,1071.8,509.2,1069.7,502.6 M1091.9,489.7
			c0.3,0,0.4-0.1,0.4-0.4c0-1.2-0.1-2-0.4-2.7c-0.8-2.6-3.1-4.1-6.2-4.1c-3.1,0-5.3,1.5-6.2,4.1c-0.3,0.8-0.4,1.5-0.4,2.7
			c0,0.3,0.1,0.4,0.4,0.4H1091.9z"/>
		<path id="path3014_1_" inkscape:connector-curvature="0" fill="#FFFFFF" d="M1131,507.2v-17.1c0-4.1-2-6.8-5.8-6.8
			s-5.8,2.7-5.8,6.8V507c0,3.5-2.3,5.7-5.4,5.7c-3.1,0-5.4-2.2-5.4-5.7v-26.8c0-3.5,2.3-5.7,5.4-5.7c2.6,0,4.6,1.5,5.1,3.9h0.1
			c1.9-2.4,5.1-4.3,9.9-4.3c8.3,0,12.7,5.8,12.7,13.8V507c0,3.5-2.3,5.7-5.4,5.7C1133.3,512.9,1131,510.7,1131,507.2"/>
		<path id="path3016_1_" inkscape:connector-curvature="0" fill="#FFFFFF" d="M1148.6,502.4c-0.8-2.7-1.2-5.1-1.2-8.8
			c0-3.7,0.4-6.1,1.2-8.8c2.3-6.9,8-10.7,16.3-10.7c8.1,0,13.9,3.8,16.3,10.7c0.8,2.7,1.2,5.1,1.2,8.8c0,3.7-0.4,6.1-1.2,8.8
			c-2.3,6.9-8,10.7-16.3,10.7C1156.6,513.3,1150.9,509.3,1148.6,502.4 M1170.6,500c0.5-1.6,0.7-3.7,0.7-6.2c0-2.6-0.1-4.6-0.7-6.2
			c-0.8-2.6-2.7-4.2-5.8-4.2c-3,0-4.9,1.5-5.8,4.2c-0.5,1.6-0.7,3.7-0.7,6.2c0,2.6,0.1,4.6,0.7,6.2c0.8,2.6,2.7,4.2,5.8,4.2
			C1167.9,504.1,1169.7,502.6,1170.6,500"/>
		<path id="path3018_1_" inkscape:connector-curvature="0" fill="#FFFFFF" d="M1189,509.6c-1.9-1.2-2.6-2.6-2.6-4.3
			c0-2.4,2-4.3,4.5-4.3c0.9,0,1.9,0.3,3.1,0.9c2.7,1.5,5.6,2.7,9.2,2.7c3.9,0,5.8-1.4,5.8-3.5c0-1.8-0.9-2.7-5.4-3.1l-4.1-0.4
			c-8.1-0.9-12.2-4.9-12.2-11.4c0-7.3,5.7-12.1,15.4-12.1c4.2,0,8.1,0.8,11.4,2.4c2,1.1,3.1,2.4,3.1,4.2c0,2.4-1.8,4.2-4.2,4.2
			c-0.8,0-1.6-0.3-3.1-0.9c-2.3-1.1-4.9-1.6-7.6-1.6c-3.3,0-4.7,1.2-4.7,3s0.9,2.6,5.1,3.1l4.1,0.4c8.8,0.9,12.5,5.1,12.5,11.4
			c0,7.6-6.1,12.7-16.7,12.7C1196.7,513.3,1192.1,511.6,1189,509.6"/>
		<path id="path3020_1_" inkscape:connector-curvature="0" fill="#FFFFFF" d="M1240.7,505.3l14.2-39.3c1.5-4.2,3.8-6.6,7.7-6.6
			c4.1,0,6.4,2.4,7.9,6.6l13.9,39.3c0.3,0.7,0.4,1.4,0.4,2.2c0,3.3-2.6,5.3-5.4,5.3c-2.4,0-4.5-1.5-5.3-4.1l-2.2-6.4h-18.7l-2,6.4
			c-0.8,2.6-2.8,4.1-5.3,4.1c-2.8,0-5.4-2-5.4-5.3C1240.3,506.8,1240.4,506,1240.7,505.3 M1268.8,492.8l-6-18.3h-0.3l-6.1,18.3
			H1268.8L1268.8,492.8z"/>
		<path id="path3022_1_" inkscape:connector-curvature="0" fill="#FFFFFF" d="M1289.1,465.2c0-3.4,2.7-6.1,6.1-6.1s6.1,2.7,6.1,6.1
			c0,3.4-2.7,6.1-6.1,6.1S1289.1,468.6,1289.1,465.2 M1289.7,507.2v-27c0-3.5,2.3-5.7,5.4-5.7c3.1,0,5.4,2.2,5.4,5.7V507
			c0,3.5-2.3,5.7-5.4,5.7C1292,512.9,1289.7,510.7,1289.7,507.2"/>
		<path id="path3024_1_" inkscape:connector-curvature="0" fill="#FFFFFF" d="M1308.4,507.2v-27c0-3.5,2.3-5.7,5.4-5.7
			c2.6,0,4.6,1.5,5.3,4.2v0.1h0.1c1.8-2.4,5.1-4.6,9.3-4.6c1.8,0,3,0.3,3.9,0.8c1.9,0.9,2.8,2.6,2.8,4.3c0,3.1-2.2,5.4-5.3,5.4
			c-0.8,0-1.5-0.1-2.3-0.4c-0.8-0.3-1.9-0.4-2.7-0.4c-4.1,0-5.7,2.8-5.7,7.9V507c0,3.5-2.3,5.7-5.4,5.7
			C1310.6,512.9,1308.4,510.7,1308.4,507.2"/>
		<path id="path3026_1_" inkscape:connector-curvature="0" fill="#FFFFFF" d="M1337.3,502.6c-0.8-2.3-1.2-5-1.2-8.8
			c0-3.9,0.4-6.6,1.2-8.9c2.3-6.8,8.1-10.6,16.1-10.6c8.3,0,13.9,3.8,16.1,10.4c0.8,2.6,1.2,5.3,1.2,8.7c0,2-1.4,3.5-3.5,3.5h-19.8
			c-0.3,0-0.4,0.1-0.4,0.4c0,0.8,0.1,1.5,0.4,2.2c0.9,3.1,3.8,4.9,7.7,4.9c2.6,0,5-0.8,7-1.9c1.4-0.8,2.6-1.2,3.7-1.2
			c2.3,0,3.9,1.8,3.9,4.1c0,1.6-0.8,3-2.2,3.8c-3.5,2.4-7.7,4.1-13.5,4.1C1345.3,513.3,1339.3,509.2,1337.3,502.6 M1359.5,489.7
			c0.3,0,0.4-0.1,0.4-0.4c0-1.2-0.1-2-0.4-2.7c-0.8-2.6-3.1-4.1-6.2-4.1c-3.1,0-5.3,1.5-6.2,4.1c-0.3,0.8-0.4,1.5-0.4,2.7
			c0,0.3,0.1,0.4,0.4,0.4H1359.5z"/>
		<path id="path3028_1_" inkscape:connector-curvature="0" fill="#FFFFFF" d="M1377.4,509.6c-1.9-1.2-2.6-2.6-2.6-4.3
			c0-2.4,2-4.3,4.5-4.3c0.9,0,1.9,0.3,3.1,0.9c2.7,1.5,5.6,2.7,9.2,2.7c3.9,0,5.8-1.4,5.8-3.5c0-1.8-0.9-2.7-5.4-3.1l-4.1-0.4
			c-8.1-0.9-12.2-4.9-12.2-11.4c0-7.3,5.7-12.1,15.4-12.1c4.2,0,8.1,0.8,11.4,2.4c2,1.1,3.1,2.4,3.1,4.2c0,2.4-1.8,4.2-4.2,4.2
			c-0.8,0-1.6-0.3-3.1-0.9c-2.3-1.1-4.9-1.6-7.6-1.6c-3.3,0-4.7,1.2-4.7,3s0.9,2.6,5.1,3.1l4.1,0.4c8.8,0.9,12.5,5.1,12.5,11.4
			c0,7.6-6.1,12.7-16.7,12.7C1385.1,513.3,1380.3,511.6,1377.4,509.6"/>
	</g>
</g>
</svg>
