<?xml version="1.0" encoding="UTF-8" standalone="no"?>
<!-- Generator: Adobe Illustrator 18.0.0, SVG Export Plug-In . SVG Version: 6.00 Build 0)  -->

<svg
   xmlns:dc="http://purl.org/dc/elements/1.1/"
   xmlns:cc="http://creativecommons.org/ns#"
   xmlns:rdf="http://www.w3.org/1999/02/22-rdf-syntax-ns#"
   xmlns:svg="http://www.w3.org/2000/svg"
   xmlns="http://www.w3.org/2000/svg"
   xmlns:sodipodi="http://sodipodi.sourceforge.net/DTD/sodipodi-0.dtd"
   xmlns:inkscape="http://www.inkscape.org/namespaces/inkscape"
   version="1.1"
   id="Capa_1"
   x="0px"
   y="0px"
   viewBox="555 0 258.9 82"
   enable-background="new 555 0 286.9 82"
   xml:space="preserve"
   inkscape:version="0.91 r13725"
   sodipodi:docname="dte_logo.svg"
   width="258.89999"
   height="82"><metadata
     id="metadata72"><rdf:RDF><cc:Work
         rdf:about=""><dc:format>image/svg+xml</dc:format><dc:type
           rdf:resource="http://purl.org/dc/dcmitype/StillImage" /><dc:title></dc:title></cc:Work></rdf:RDF></metadata><defs
     id="defs70" /><sodipodi:namedview
     pagecolor="#ffffff"
     bordercolor="#666666"
     borderopacity="1"
     objecttolerance="10"
     gridtolerance="10"
     guidetolerance="10"
     inkscape:pageopacity="0"
     inkscape:pageshadow="2"
     inkscape:window-width="1366"
     inkscape:window-height="705"
     id="namedview68"
     showgrid="false"
     inkscape:zoom="3.0964226"
     inkscape:cx="176.74355"
     inkscape:cy="32.060458"
     inkscape:window-x="-8"
     inkscape:window-y="-8"
     inkscape:window-maximized="1"
     inkscape:current-layer="g3" /><g
     id="g3"><g
       id="g5"
       transform="translate(-14.645907,0)"><path
         d="m 591.4,16.9 c 2.7,0 5.5,0.3 7.9,0.8 2.5,0.5 4.6,1.4 6.3,2.5 1.9,1.1 3.3,2.2 4.4,3.8 1.1,1.6 1.6,3.3 1.6,5.5 l 0,21 c 0,1.6 -0.3,3.3 -0.8,4.6 -0.5,1.4 -1.1,2.5 -1.9,3.6 -0.8,1.1 -1.9,1.9 -3,2.5 -1.1,0.8 -2.2,1.4 -3.3,1.6 -2.7,1.1 -5.7,1.6 -9,1.6 l -15.3,0 c -1.6,0 -3,-0.3 -4.1,-0.5 -0.8,-0.5 -1.6,-1.1 -2.2,-1.6 -0.5,-0.8 -0.5,-1.6 -0.8,-2.5 0,-0.8 0,-1.9 0,-3 l 0,-32.2 c 0,-1.1 0,-1.9 0,-2.7 0,-0.8 0.3,-1.6 0.8,-2.5 0.5,-0.8 1.1,-1.4 2.2,-1.6 0.8,-0.5 2.2,-0.5 4.1,-0.5 l 13.1,0 0,-0.4 0,0 z m -6.3,8 0,31.4 6,0 c 1.4,0 2.5,-0.3 3.6,-0.5 0.5,-0.3 0.8,-0.3 1.4,-0.5 0.5,-0.3 0.8,-0.5 1.1,-1.1 0.3,-0.3 0.5,-0.8 0.8,-1.4 0.3,-0.5 0.3,-1.1 0.3,-1.9 l 0,-20 c 0,-0.8 0,-1.4 -0.3,-1.9 -0.3,-0.5 -0.5,-1.1 -0.8,-1.6 -0.3,-0.3 -0.8,-0.5 -1.1,-0.8 -0.5,-0.5 -0.8,-0.5 -1.4,-0.8 -1.1,-0.5 -2.2,-0.8 -3.6,-0.8 l -6,0 0,-0.1 z"
         id="path7"
         inkscape:connector-curvature="0"
         style="fill:#8b9092" /><path
         d="m 653.7,19.1 c -0.5,-0.5 -1.1,-1.1 -1.9,-1.4 -0.8,-0.3 -1.6,-0.5 -2.7,-0.5 -1.1,0 -1.9,0 -3,0 l -26.8,0 c -0.8,0 -1.9,0 -3,0 -1.1,0 -1.9,0.3 -2.7,0.5 -0.3,0.3 -0.8,0.5 -1.4,1.4 -0.5,0.5 -0.8,1.6 -0.8,2.7 0,1.1 0.3,1.9 0.8,2.7 0.5,0.5 1.1,1.1 1.9,1.4 0.8,0.3 1.6,0.5 2.7,0.5 1.1,0 1.9,0 3,0 l 6.6,0 0,30.1 c 0,0.3 0,0.3 0,0.5 l 0,0 0,0.3 c 0,3.8 3,6.8 6.8,6.8 3.8,0 6.8,-3 6.8,-6.8 l 0,-0.3 0,0 c 0,-0.3 0,-0.3 0,-0.5 l 0,-30 6.6,0 c 0.8,0 1.9,0 3,0 1.1,0 1.9,-0.3 2.7,-0.5 0.8,-0.3 1.4,-0.8 1.9,-1.4 0.5,-0.5 0.8,-1.6 0.8,-2.7 -0.5,-1.4 -0.8,-2.2 -1.3,-2.8"
         id="path9"
         inkscape:connector-curvature="0"
         style="fill:#8b9092" /><g
         id="g11"><g
           id="g13"><g
             id="g15"><g
               id="g17"><path
                 id="SVGID_1_"
                 d="m 661.3,24.3 c -10.7,3.3 -16.9,14.5 -13.7,25.1 3.2,10.6 14.5,16.9 25.1,13.7 4.1,-1.1 7.7,-3.6 10.1,-6.8 1.6,-1.9 1.4,-4.9 -0.8,-6.6 -1.9,-1.6 -4.9,-1.4 -6.6,0.8 -1.4,1.9 -3.3,3 -5.5,3.8 -5.7,1.6 -12,-1.6 -13.7,-7.4 -1.6,-5.7 1.6,-12 7.4,-13.7 4.4,-1.4 8.7,0.3 11.5,3.3 l -10.1,3 c -2.5,0.8 -3.8,3.3 -3,5.7 0.8,2.5 3.3,3.8 5.7,3 L 683,43.6 c 2.5,-0.8 3.8,-3.3 3,-5.7 -2.7,-8.7 -10.7,-14.5 -19.4,-14.5 -1.4,0.1 -3.4,0.4 -5.3,0.9"
                 inkscape:connector-curvature="0"
                 style="fill:#85ac28" /></g></g></g><path
           d="m 686.8,40.2 c 0,-0.3 0,-0.3 0,-0.5 l 0,0 0,-0.3 c 0,0 0,0 0,-0.3 l 0,-0.3 c 0,0 0,0 0,-0.3 0,-0.3 0,-0.3 0,-0.5 l 0,0 0,0 c -1.4,-4.4 -3.8,-7.7 -7.1,-10.4 -0.5,-0.5 -1.4,-0.8 -1.9,-1.4 l 0,0 0,0 0,0 -0.3,0 c -0.3,0 -0.3,-0.3 -0.5,-0.3 0,0 0,0 -0.3,0 -0.3,0 -0.3,-0.3 -0.5,-0.3 0,0 -0.3,0 -0.3,-0.3 l 0,0 c 0,0 0,0 -0.3,0 0,0 -0.3,0 -0.3,-0.3 -0.3,0 -0.3,0 -0.5,-0.3 l 0,0 0,0 c -2.5,-0.8 -4.9,-1.4 -7.4,-1.4 -1.9,0 -3.8,0.3 -5.7,0.8 -10.8,3.5 -17,14.7 -13.8,25.4 0.5,2.2 1.6,4.1 2.7,5.7 0,-0.3 0,-0.3 -0.3,-0.5 -2.7,-9.3 2.2,-18.9 11.2,-21.6 2.7,-0.8 5.5,-0.8 8.2,-0.3 l 0,0 0,0 0,0 0,0 0,0 0,0 0.3,0 c 0,0 0,0 0.3,0 0.3,0 0.5,0.3 0.8,0.3 1.6,0.5 3.3,1.6 4.4,3 l 0,0 -10.1,3 c -2.5,0.8 -3.8,3.3 -3,5.7 0.8,2.5 3.3,3.8 5.7,3 l 15.3,-4.6 c 2,0 3.1,-1.4 3.4,-3 l 0,0 0,0 z"
           id="path20"
           inkscape:connector-curvature="0"
           style="fill:#aec212" /></g></g><line
       stroke-miterlimit="10"
       x1="690.95404"
       y1="15.6"
       x2="690.95404"
       y2="66.099998"
       id="line22"
       style="fill:none;stroke:#ffffff;stroke-width:0.47119999;stroke-miterlimit:10" /><rect
       x="708.15405"
       y="25.700001"
       width="119.7"
       height="40.700001"
       id="rect24"
       style="fill:none" /><g
       enable-background="new    "
       id="g26"
       style="fill:#ffffff"
       transform="translate(-14.645907,0)"><path
         d="m 727.2,27.8 -3.9,0 0,-1.5 9.5,0 0,1.5 -3.9,0 0,11.4 -1.7,0 0,-11.4 z"
         id="path28"
         style="fill:#ffffff"
         inkscape:connector-curvature="0" /><path
         d="m 734.8,26.3 7.7,0 0,1.5 -6,0 0,4 5.5,0 0,1.5 -5.5,0 0,4.4 6,0 0,1.5 -7.7,0 0,-12.9 z"
         id="path30"
         style="fill:#ffffff"
         inkscape:connector-curvature="0" /><path
         d="m 746.6,35.5 c 0,1.8 0.7,2.4 2.8,2.4 0.8,0 2.1,-0.1 3,-0.3 l 0.2,1.4 c -0.9,0.2 -2.3,0.3 -3.3,0.3 -3.2,0 -4.5,-1.4 -4.5,-3.8 l 0,-5.7 c 0,-2.4 1.3,-3.8 4.5,-3.8 1,0 2.3,0.1 3.3,0.3 l -0.2,1.4 c -1,-0.2 -2.3,-0.3 -3,-0.3 -2.1,0 -2.8,0.6 -2.8,2.4 l 0,5.7 z"
         id="path32"
         style="fill:#ffffff"
         inkscape:connector-curvature="0" /><path
         d="m 756.9,28.3 0,11 -1.6,0 0,-13 2.3,0 5.7,11 0,-11 1.6,0 0,12.9 -2.3,0 -5.7,-10.9 z"
         id="path34"
         style="fill:#ffffff"
         inkscape:connector-curvature="0" /><path
         d="m 777.3,35.5 c 0,2.1 -1.3,3.9 -4.7,3.9 -3.4,0 -4.7,-1.8 -4.7,-3.9 l 0,-5.5 c 0,-2.1 1.3,-3.9 4.7,-3.9 3.4,0 4.7,1.8 4.7,3.9 l 0,5.5 z m -7.7,0 c 0,1.6 1,2.5 3,2.5 2,0 3,-0.9 3,-2.5 l 0,-5.4 c 0,-1.6 -1,-2.5 -3,-2.5 -2,0 -3,0.9 -3,2.5 l 0,5.4 z"
         id="path36"
         style="fill:#ffffff"
         inkscape:connector-curvature="0" /><path
         d="m 782,37.7 5.6,0 0,1.5 -7.3,0 0,-12.9 1.7,0 0,11.4 z"
         id="path38"
         style="fill:#ffffff"
         inkscape:connector-curvature="0" /><path
         d="m 798.7,35.5 c 0,2.1 -1.3,3.9 -4.7,3.9 -3.4,0 -4.7,-1.8 -4.7,-3.9 l 0,-5.5 c 0,-2.1 1.3,-3.9 4.7,-3.9 3.4,0 4.7,1.8 4.7,3.9 l 0,5.5 z m -7.7,0 c 0,1.6 1,2.5 3,2.5 2,0 3,-0.9 3,-2.5 l 0,-5.4 c 0,-1.6 -1,-2.5 -3,-2.5 -2,0 -3,0.9 -3,2.5 l 0,5.4 z"
         id="path40"
         style="fill:#ffffff"
         inkscape:connector-curvature="0" /><path
         d="m 803.1,35.5 c 0,1.6 0.5,2.4 2.7,2.4 0.7,0 1.5,-0.1 2.4,-0.2 l 0,-4.4 1.6,0 0,5.6 c -1.3,0.4 -2.8,0.6 -4.1,0.6 -3.3,0 -4.3,-1.4 -4.3,-3.8 l 0,-5.7 c 0,-2.6 1.3,-3.8 4.6,-3.8 1.1,0 2.4,0.1 3.6,0.4 l -0.2,1.4 c -1.3,-0.2 -2.4,-0.3 -3.5,-0.3 -2.1,0 -2.8,0.6 -2.8,2.4 l 0,5.4 z"
         id="path42"
         style="fill:#ffffff"
         inkscape:connector-curvature="0" /><path
         d="m 814.8,39.2 -1.7,0 0,-12.9 1.7,0 0,12.9 z m -1.5,-14.8 c 0.9,-0.5 1.6,-1 2.4,-1.6 l 0.7,1.1 c -0.8,0.6 -1.6,1.1 -2.5,1.5 l -0.6,-1 z"
         id="path44"
         style="fill:#ffffff"
         inkscape:connector-curvature="0" /><path
         d="m 828.2,39.2 -1.7,0 -1.1,-3.1 -5.5,0 -1.1,3.1 -1.7,0 4.4,-12.9 2.3,0 4.4,12.9 z m -5.5,-11.7 -2.3,7.1 4.6,0 -2.3,-7.1 z"
         id="path46"
         style="fill:#ffffff"
         inkscape:connector-curvature="0" /></g><g
       enable-background="new    "
       id="g48"
       transform="translate(-14.645907,0)"><path
         d="m 724.6,48.2 7.7,0 0,1.5 -6,0 0,4 5.5,0 0,1.5 -5.5,0 0,4.4 6,0 0,1.5 -7.7,0 0,-12.9 z"
         id="path50"
         inkscape:connector-curvature="0"
         style="fill:#ffffff" /><path
         d="m 739.7,48.2 c 3.2,0 4.2,1.6 4.2,3.7 l 0,5.5 c 0,2.1 -1,3.7 -4.2,3.7 l -4.6,0 0,-12.9 4.6,0 z m -2.9,11.4 2.8,0 c 2,0 2.6,-0.8 2.6,-2.3 l 0,-5.3 c 0,-1.5 -0.6,-2.3 -2.6,-2.3 l -2.8,0 0,9.9 z"
         id="path52"
         inkscape:connector-curvature="0"
         style="fill:#ffffff" /><path
         d="m 755.9,48.2 0,9.3 c 0,2.1 -1.2,3.8 -4.6,3.8 -3.4,0 -4.6,-1.7 -4.6,-3.8 l 0,-9.3 1.7,0 0,9.2 c 0,1.6 0.9,2.4 2.9,2.4 2,0 2.9,-0.8 2.9,-2.4 l 0,-9.2 1.7,0 z"
         id="path54"
         inkscape:connector-curvature="0"
         style="fill:#ffffff" /><path
         d="m 760.5,57.4 c 0,1.8 0.7,2.4 2.8,2.4 0.8,0 2.1,-0.1 3,-0.3 l 0.2,1.4 c -0.9,0.2 -2.3,0.3 -3.3,0.3 -3.2,0 -4.5,-1.4 -4.5,-3.8 l 0,-5.7 c 0,-2.4 1.3,-3.8 4.5,-3.8 1,0 2.3,0.1 3.3,0.3 l -0.2,1.4 c -1,-0.2 -2.3,-0.3 -3,-0.3 -2.1,0 -2.8,0.6 -2.8,2.4 l 0,5.7 z"
         id="path56"
         inkscape:connector-curvature="0"
         style="fill:#ffffff" /><path
         d="m 779.4,61.1 -1.7,0 -1.1,-3.1 -5.5,0 -1.1,3.1 -1.7,0 4.4,-12.9 2.3,0 4.4,12.9 z m -5.5,-11.7 -2.3,7.1 4.6,0 -2.3,-7.1 z"
         id="path58"
         inkscape:connector-curvature="0"
         style="fill:#ffffff" /><path
         d="m 783.1,49.7 -3.9,0 0,-1.5 9.5,0 0,1.5 -3.9,0 0,11.4 -1.7,0 0,-11.4 z"
         id="path60"
         inkscape:connector-curvature="0"
         style="fill:#ffffff" /><path
         d="m 792.5,61.1 -1.7,0 0,-12.9 1.7,0 0,12.9 z"
         id="path62"
         inkscape:connector-curvature="0"
         style="fill:#ffffff" /><path
         d="m 794.6,48.2 1.6,0 3.8,11.4 3.8,-11.4 1.6,0 -4.3,12.9 -2.3,0 -4.2,-12.9 z"
         id="path64"
         inkscape:connector-curvature="0"
         style="fill:#ffffff" /><path
         d="m 816.4,61.1 -1.7,0 -1.1,-3.1 -5.5,0 -1.1,3.1 -1.7,0 4.4,-12.9 2.3,0 4.4,12.9 z m -5.5,-11.7 -2.3,7.1 4.6,0 -2.3,-7.1 z"
         id="path66"
         inkscape:connector-curvature="0"
         style="fill:#ffffff" /></g></g></svg>