<?xml version="1.0" encoding="utf-8"?>
<!-- Generator: Adobe Illustrator 18.0.0, SVG Export Plug-In . SVG Version: 6.00 Build 0)  -->
<!DOCTYPE svg PUBLIC "-//W3C//DTD SVG 1.1//EN" "http://www.w3.org/Graphics/SVG/1.1/DTD/svg11.dtd">
<svg version="1.1" id="Capa_1" xmlns="http://www.w3.org/2000/svg" xmlns:xlink="http://www.w3.org/1999/xlink" x="0px" y="0px"
	 viewBox="555 0 286.9 82" enable-background="new 555 0 286.9 82" xml:space="preserve">
<g>
	<g>
		<path fill="#8B9092" d="M591.4,16.9c2.7,0,5.5,0.3,7.9,0.8c2.5,0.5,4.6,1.4,6.3,2.5c1.9,1.1,3.3,2.2,4.4,3.8
			c1.1,1.6,1.6,3.3,1.6,5.5v21c0,1.6-0.3,3.3-0.8,4.6c-0.5,1.4-1.1,2.5-1.9,3.6s-1.9,1.9-3,2.5c-1.1,0.8-2.2,1.4-3.3,1.6
			c-2.7,1.1-5.7,1.6-9,1.6h-15.3c-1.6,0-3-0.3-4.1-0.5c-0.8-0.5-1.6-1.1-2.2-1.6c-0.5-0.8-0.5-1.6-0.8-2.5c0-0.8,0-1.9,0-3V24.6
			c0-1.1,0-1.9,0-2.7s0.3-1.6,0.8-2.5c0.5-0.8,1.1-1.4,2.2-1.6c0.8-0.5,2.2-0.5,4.1-0.5h13.1L591.4,16.9L591.4,16.9z M585.1,24.9
			v31.4h6c1.4,0,2.5-0.3,3.6-0.5c0.5-0.3,0.8-0.3,1.4-0.5c0.5-0.3,0.8-0.5,1.1-1.1c0.3-0.3,0.5-0.8,0.8-1.4c0.3-0.5,0.3-1.1,0.3-1.9
			v-20c0-0.8,0-1.4-0.3-1.9c-0.3-0.5-0.5-1.1-0.8-1.6c-0.3-0.3-0.8-0.5-1.1-0.8c-0.5-0.5-0.8-0.5-1.4-0.8c-1.1-0.5-2.2-0.8-3.6-0.8
			h-6V24.9z"/>
		<path fill="#8B9092" d="M653.7,19.1c-0.5-0.5-1.1-1.1-1.9-1.4c-0.8-0.3-1.6-0.5-2.7-0.5c-1.1,0-1.9,0-3,0h-26.8c-0.8,0-1.9,0-3,0
			c-1.1,0-1.9,0.3-2.7,0.5c-0.3,0.3-0.8,0.5-1.4,1.4c-0.5,0.5-0.8,1.6-0.8,2.7s0.3,1.9,0.8,2.7c0.5,0.5,1.1,1.1,1.9,1.4
			c0.8,0.3,1.6,0.5,2.7,0.5c1.1,0,1.9,0,3,0h6.6v30.1c0,0.3,0,0.3,0,0.5l0,0v0.3c0,3.8,3,6.8,6.8,6.8s6.8-3,6.8-6.8V57l0,0
			c0-0.3,0-0.3,0-0.5v-30h6.6c0.8,0,1.9,0,3,0c1.1,0,1.9-0.3,2.7-0.5c0.8-0.3,1.4-0.8,1.9-1.4c0.5-0.5,0.8-1.6,0.8-2.7
			C654.5,20.5,654.2,19.7,653.7,19.1"/>
		<g>
			<g>
				<g>
					<g>
						<path id="SVGID_1_" fill="#85AC28" d="M661.3,24.3c-10.7,3.3-16.9,14.5-13.7,25.1c3.2,10.6,14.5,16.9,25.1,13.7
							c4.1-1.1,7.7-3.6,10.1-6.8c1.6-1.9,1.4-4.9-0.8-6.6c-1.9-1.6-4.9-1.4-6.6,0.8c-1.4,1.9-3.3,3-5.5,3.8
							c-5.7,1.6-12-1.6-13.7-7.4c-1.6-5.7,1.6-12,7.4-13.7c4.4-1.4,8.7,0.3,11.5,3.3l-10.1,3c-2.5,0.8-3.8,3.3-3,5.7
							c0.8,2.5,3.3,3.8,5.7,3l15.3-4.6c2.5-0.8,3.8-3.3,3-5.7c-2.7-8.7-10.7-14.5-19.4-14.5C665.2,23.5,663.2,23.8,661.3,24.3"/>
					</g>
				</g>
			</g>
			<path fill="#AEC212" d="M686.8,40.2c0-0.3,0-0.3,0-0.5l0,0v-0.3c0,0,0,0,0-0.3v-0.3c0,0,0,0,0-0.3s0-0.3,0-0.5l0,0l0,0
				c-1.4-4.4-3.8-7.7-7.1-10.4c-0.5-0.5-1.4-0.8-1.9-1.4l0,0l0,0l0,0h-0.3c-0.3,0-0.3-0.3-0.5-0.3c0,0,0,0-0.3,0
				c-0.3,0-0.3-0.3-0.5-0.3c0,0-0.3,0-0.3-0.3l0,0c0,0,0,0-0.3,0c0,0-0.3,0-0.3-0.3c-0.3,0-0.3,0-0.5-0.3l0,0l0,0
				c-2.5-0.8-4.9-1.4-7.4-1.4c-1.9,0-3.8,0.3-5.7,0.8c-10.8,3.5-17,14.7-13.8,25.4c0.5,2.2,1.6,4.1,2.7,5.7c0-0.3,0-0.3-0.3-0.5
				c-2.7-9.3,2.2-18.9,11.2-21.6c2.7-0.8,5.5-0.8,8.2-0.3l0,0l0,0l0,0l0,0l0,0l0,0h0.3c0,0,0,0,0.3,0s0.5,0.3,0.8,0.3
				c1.6,0.5,3.3,1.6,4.4,3l0,0l-10.1,3c-2.5,0.8-3.8,3.3-3,5.7c0.8,2.5,3.3,3.8,5.7,3l15.3-4.6C685.4,43.2,686.5,41.8,686.8,40.2
				L686.8,40.2L686.8,40.2z"/>
		</g>
	</g>
	<line fill="none" stroke="#FFFFFF" stroke-width="0.4712" stroke-miterlimit="10" x1="705.6" y1="15.6" x2="705.6" y2="66.1"/>
	<rect x="722.8" y="25.7" fill="none" width="119.7" height="40.7"/>
	<g enable-background="new    ">
		<path fill="#FFFFFF" d="M727.2,27.8h-3.9v-1.5h9.5v1.5h-3.9v11.4h-1.7V27.8z"/>
		<path fill="#FFFFFF" d="M734.8,26.3h7.7v1.5h-6v4h5.5v1.5h-5.5v4.4h6v1.5h-7.7V26.3z"/>
		<path fill="#FFFFFF" d="M746.6,35.5c0,1.8,0.7,2.4,2.8,2.4c0.8,0,2.1-0.1,3-0.3l0.2,1.4c-0.9,0.2-2.3,0.3-3.3,0.3
			c-3.2,0-4.5-1.4-4.5-3.8v-5.7c0-2.4,1.3-3.8,4.5-3.8c1,0,2.3,0.1,3.3,0.3l-0.2,1.4c-1-0.2-2.3-0.3-3-0.3c-2.1,0-2.8,0.6-2.8,2.4
			V35.5z"/>
		<path fill="#FFFFFF" d="M756.9,28.3v11h-1.6V26.3h2.3l5.7,11v-11h1.6v12.9h-2.3L756.9,28.3z"/>
		<path fill="#FFFFFF" d="M777.3,35.5c0,2.1-1.3,3.9-4.7,3.9s-4.7-1.8-4.7-3.9v-5.5c0-2.1,1.3-3.9,4.7-3.9s4.7,1.8,4.7,3.9V35.5z
			 M769.6,35.5c0,1.6,1,2.5,3,2.5s3-0.9,3-2.5v-5.4c0-1.6-1-2.5-3-2.5s-3,0.9-3,2.5V35.5z"/>
		<path fill="#FFFFFF" d="M782,37.7h5.6v1.5h-7.3V26.3h1.7V37.7z"/>
		<path fill="#FFFFFF" d="M798.7,35.5c0,2.1-1.3,3.9-4.7,3.9s-4.7-1.8-4.7-3.9v-5.5c0-2.1,1.3-3.9,4.7-3.9s4.7,1.8,4.7,3.9V35.5z
			 M791,35.5c0,1.6,1,2.5,3,2.5s3-0.9,3-2.5v-5.4c0-1.6-1-2.5-3-2.5s-3,0.9-3,2.5V35.5z"/>
		<path fill="#FFFFFF" d="M803.1,35.5c0,1.6,0.5,2.4,2.7,2.4c0.7,0,1.5-0.1,2.4-0.2v-4.4h1.6v5.6c-1.3,0.4-2.8,0.6-4.1,0.6
			c-3.3,0-4.3-1.4-4.3-3.8V30c0-2.6,1.3-3.8,4.6-3.8c1.1,0,2.4,0.1,3.6,0.4l-0.2,1.4c-1.3-0.2-2.4-0.3-3.5-0.3
			c-2.1,0-2.8,0.6-2.8,2.4V35.5z"/>
		<path fill="#FFFFFF" d="M814.8,39.2h-1.7V26.3h1.7V39.2z M813.3,24.4c0.9-0.5,1.6-1,2.4-1.6l0.7,1.1c-0.8,0.6-1.6,1.1-2.5,1.5
			L813.3,24.4z"/>
		<path fill="#FFFFFF" d="M828.2,39.2h-1.7l-1.1-3.1h-5.5l-1.1,3.1h-1.7l4.4-12.9h2.3L828.2,39.2z M822.7,27.5l-2.3,7.1h4.6
			L822.7,27.5z"/>
	</g>
	<g enable-background="new    ">
		<path fill="#FFFFFF" d="M724.6,48.2h7.7v1.5h-6v4h5.5v1.5h-5.5v4.4h6v1.5h-7.7V48.2z"/>
		<path fill="#FFFFFF" d="M739.7,48.2c3.2,0,4.2,1.6,4.2,3.7v5.5c0,2.1-1,3.7-4.2,3.7h-4.6V48.2H739.7z M736.8,59.6h2.8
			c2,0,2.6-0.8,2.6-2.3V52c0-1.5-0.6-2.3-2.6-2.3h-2.8V59.6z"/>
		<path fill="#FFFFFF" d="M755.9,48.2v9.3c0,2.1-1.2,3.8-4.6,3.8s-4.6-1.7-4.6-3.8v-9.3h1.7v9.2c0,1.6,0.9,2.4,2.9,2.4
			s2.9-0.8,2.9-2.4v-9.2H755.9z"/>
		<path fill="#FFFFFF" d="M760.5,57.4c0,1.8,0.7,2.4,2.8,2.4c0.8,0,2.1-0.1,3-0.3l0.2,1.4c-0.9,0.2-2.3,0.3-3.3,0.3
			c-3.2,0-4.5-1.4-4.5-3.8v-5.7c0-2.4,1.3-3.8,4.5-3.8c1,0,2.3,0.1,3.3,0.3l-0.2,1.4c-1-0.2-2.3-0.3-3-0.3c-2.1,0-2.8,0.6-2.8,2.4
			V57.4z"/>
		<path fill="#FFFFFF" d="M779.4,61.1h-1.7l-1.1-3.1h-5.5l-1.1,3.1h-1.7l4.4-12.9h2.3L779.4,61.1z M773.9,49.4l-2.3,7.1h4.6
			L773.9,49.4z"/>
		<path fill="#FFFFFF" d="M783.1,49.7h-3.9v-1.5h9.5v1.5h-3.9v11.4h-1.7V49.7z"/>
		<path fill="#FFFFFF" d="M792.5,61.1h-1.7V48.2h1.7V61.1z"/>
		<path fill="#FFFFFF" d="M794.6,48.2h1.6l3.8,11.4l3.8-11.4h1.6l-4.3,12.9h-2.3L794.6,48.2z"/>
		<path fill="#FFFFFF" d="M816.4,61.1h-1.7l-1.1-3.1h-5.5l-1.1,3.1h-1.7l4.4-12.9h2.3L816.4,61.1z M810.9,49.4l-2.3,7.1h4.6
			L810.9,49.4z"/>
	</g>
</g>
</svg>
