<?xml version="1.0" encoding="utf-8"?>
<!-- Generator: Adobe Illustrator 18.0.0, SVG Export Plug-In . SVG Version: 6.00 Build 0)  -->
<!DOCTYPE svg PUBLIC "-//W3C//DTD SVG 1.1//EN" "http://www.w3.org/Graphics/SVG/1.1/DTD/svg11.dtd">
<svg version="1.1" id="Layer_1" xmlns="http://www.w3.org/2000/svg" xmlns:xlink="http://www.w3.org/1999/xlink" x="0px" y="0px"
	 viewBox="380.9 0 80 82" enable-background="new 380.9 0 80 82" xml:space="preserve">
<g>
	<path fill="none" stroke="#FFFFFF" stroke-width="3" stroke-linecap="round" stroke-linejoin="round" stroke-miterlimit="10" d="
		M451.3,58.1c-3.4,2.4-7.6,3.8-12,3.8c-5.3,0-10.4-2.3-13.8-5.2c-3.5-3-5.2-3-9,0c-3.7,3-8.5,5.2-13.8,5.2
		c-11.5,0-20.8-9.3-20.8-20.9s9.3-20.9,20.9-20.9h36.6c11.6,0,20.9,9.3,20.9,20.9c0,1.2-0.1,2.4-0.3,3.6"/>
	
		<line fill="none" stroke="#FFFFFF" stroke-width="3" stroke-linecap="round" stroke-linejoin="round" stroke-miterlimit="10" x1="403.5" y1="32.8" x2="403.5" y2="49.2"/>
	
		<line fill="none" stroke="#FFFFFF" stroke-width="3" stroke-linecap="round" stroke-linejoin="round" stroke-miterlimit="10" x1="411.7" y1="42" x2="394.3" y2="42"/>
	
		<circle fill="none" stroke="#FFFFFF" stroke-width="3" stroke-linecap="round" stroke-linejoin="round" stroke-miterlimit="10" cx="444.5" cy="34.3" r="4.5"/>
	
		<circle fill="none" stroke="#FFFFFF" stroke-width="3" stroke-linecap="round" stroke-linejoin="round" stroke-miterlimit="10" cx="433.3" cy="45.5" r="4.5"/>
</g>
</svg>
