<?xml version="1.0" encoding="utf-8"?>
<!-- Generator: Adobe Illustrator 18.0.0, SVG Export Plug-In . SVG Version: 6.00 Build 0)  -->
<!DOCTYPE svg PUBLIC "-//W3C//DTD SVG 1.1//EN" "http://www.w3.org/Graphics/SVG/1.1/DTD/svg11.dtd">
<svg version="1.1" id="Layer_1" xmlns="http://www.w3.org/2000/svg" xmlns:xlink="http://www.w3.org/1999/xlink" x="0px" y="0px"
	 viewBox="380.9 0 80 82" enable-background="new 380.9 0 80 82" xml:space="preserve">
<g>
	<path fill="none" stroke="#FFFFFF" stroke-width="3" stroke-linecap="round" stroke-linejoin="round" stroke-miterlimit="10" d="
		M428.4,33.5c4.2,1.2,7.4,5.1,7.4,9.7c0,4.7-3.3,8.7-7.7,9.8"/>
	<path fill="none" stroke="#FFFFFF" stroke-width="3" stroke-linecap="round" stroke-linejoin="round" stroke-miterlimit="10" d="
		M432.9,22.9c8.4,3,14.5,11,14.5,20.4c0,9.5-6.1,17.6-14.8,20.5"/>
	<path fill="none" stroke="#FFFFFF" stroke-width="3" stroke-linecap="round" stroke-linejoin="round" stroke-miterlimit="10" d="
		M438.8,12.5c12,5,20.4,16.9,20.4,30.8c0,14.1-8.8,26.2-21.2,31.1"/>
	<path fill="none" stroke="#FFFFFF" stroke-width="3" stroke-linecap="round" stroke-linejoin="round" stroke-miterlimit="10" d="
		M417.7,34.1v36.2c0,1.6-1.3,2.9-2.9,2.9c-0.8,0-1.5-0.3-2.1-0.8l-15.3-15.2"/>
	<path fill="none" stroke="#FFFFFF" stroke-width="3" stroke-linecap="round" stroke-linejoin="round" stroke-miterlimit="10" d="
		M385.6,57.2c-1.6,0-2.9-1.3-2.9-2.9V36.8c0-1.6,1.3-2.9,2.9-2.9h12l15.2-15.2c0.5-0.5,1.2-0.8,2.1-0.8c1.6,0,2.9,1.3,2.9,2.9"/>
	
		<line fill="none" stroke="#FFFFFF" stroke-width="3" stroke-linecap="round" stroke-linejoin="round" stroke-miterlimit="10" x1="397.5" y1="57.2" x2="385.6" y2="57.2"/>
</g>
</svg>
