<?xml version="1.0" encoding="utf-8"?>
<!-- Generator: Adobe Illustrator 18.0.0, SVG Export Plug-In . SVG Version: 6.00 Build 0)  -->
<!DOCTYPE svg PUBLIC "-//W3C//DTD SVG 1.1//EN" "http://www.w3.org/Graphics/SVG/1.1/DTD/svg11.dtd">
<svg version="1.1" id="Layer_1" xmlns="http://www.w3.org/2000/svg" xmlns:xlink="http://www.w3.org/1999/xlink" x="0px" y="0px"
	 viewBox="380.9 0 80 82" enable-background="new 380.9 0 80 82" xml:space="preserve">
<g>
	<path fill="none" stroke="#FFFFFF" stroke-width="3" stroke-linecap="round" stroke-linejoin="round" stroke-miterlimit="10" d="
		M450.7,19.3c4.5,6.1,7.1,13.6,7.1,21.7c0,20.4-16.5,36.9-36.9,36.9C400.4,77.9,384,61.4,384,41s16.5-36.9,36.9-36.9"/>
	<path fill="none" stroke="#FFFFFF" stroke-width="3" stroke-linecap="round" stroke-linejoin="round" stroke-miterlimit="10" d="
		M437.1,7.8c2.8,1.3,5.3,3.1,7.7,5"/>
	<path fill="none" stroke="#FFFFFF" stroke-width="3" stroke-linecap="round" stroke-linejoin="round" stroke-miterlimit="10" d="
		M438.7,42.8l-23.7,14c-0.4,0.3-0.9,0.4-1.4,0.4s-0.9-0.1-1.4-0.3c-0.8-0.5-1.4-1.4-1.4-2.5v-28c0-1,0.5-1.9,1.4-2.5
		c0.9-0.5,1.9-0.5,2.8,0l23.7,13.9c0.9,0.5,1.4,1.4,1.4,2.4S439.5,42.3,438.7,42.8z"/>
</g>
</svg>
