<?xml version="1.0" encoding="utf-8"?>
<!-- Generator: Adobe Illustrator 18.0.0, SVG Export Plug-In . SVG Version: 6.00 Build 0)  -->
<!DOCTYPE svg PUBLIC "-//W3C//DTD SVG 1.0//EN" "http://www.w3.org/TR/2001/REC-SVG-20010904/DTD/svg10.dtd">
<svg version="1.0" id="Capa_1" xmlns="http://www.w3.org/2000/svg" xmlns:xlink="http://www.w3.org/1999/xlink" x="0px" y="0px"
	 viewBox="0 0 267.5 82" enable-background="new 0 0 267.5 82" xml:space="preserve">
<g>
	<g>
		<g>
			<path fill="#29ABE2" d="M267.5,69.5c0,6.9-5.6,12.5-12.5,12.5h-56.5c-6.9,0-12.5-5.6-12.5-12.5V13c0-6.9,5.6-12.5,12.5-12.5H255
				c6.9,0,12.5,5.6,12.5,12.5V69.5z"/>
			<path fill="#FFFFFF" d="M227,13.2c3.2,0,6.2,0.3,8.9,0.9c2.7,0.6,5.1,1.5,7.2,2.7c2.1,1.2,3.7,2.7,4.8,4.6c1.2,1.8,1.8,4,1.8,6.4
				v24.9c0,2.1-0.3,3.9-0.9,5.5c-0.6,1.6-1.4,3-2.3,4.1c-1,1.2-2.1,2.2-3.3,3c-1.2,0.8-2.5,1.5-3.7,2c-3,1.2-6.4,1.9-10.2,2.1h-17.5
				c-2,0-3.5-0.3-4.6-0.8c-1.1-0.5-1.9-1.2-2.4-2.1c-0.5-0.9-0.8-1.9-0.9-3c-0.1-1.1-0.1-2.2-0.1-3.4V22.3c0-1.1,0-2.3,0.1-3.4
				c0.1-1.1,0.4-2.1,0.9-2.9c0.5-0.9,1.3-1.6,2.4-2.1c1.1-0.5,2.6-0.8,4.6-0.8H227z M219.8,22.6v37.3h6.8c1.5-0.1,2.9-0.3,4-0.8
				c0.5-0.2,1-0.4,1.5-0.8c0.5-0.3,0.9-0.7,1.3-1.1c0.4-0.4,0.7-1,0.9-1.6c0.2-0.6,0.3-1.3,0.3-2.1V29.7c0-0.9-0.1-1.7-0.3-2.3
				c-0.2-0.7-0.5-1.3-0.9-1.8c-0.4-0.5-0.8-0.9-1.3-1.3c-0.5-0.3-1-0.6-1.5-0.8c-1.2-0.5-2.5-0.8-4-0.9H219.8z"/>
		</g>
		<g>
			<path fill="#FF0013" d="M174.5,69c0,6.9-5.6,12.5-12.5,12.5h-56.5C98.6,81.5,93,75.8,93,69V12.5C93,5.6,98.6,0,105.5,0H162
				c6.9,0,12.5,5.6,12.5,12.5V69z"/>
			<path fill="#FFFFFF" d="M158.5,48.5c0.1,1.8,0.2,3.7,0.3,5.6c0.1,1.9,0.2,3.7,0.2,5.5v1.2c0,1,0,2-0.1,2.9
				c-0.1,1-0.4,1.8-0.8,2.6c-0.5,0.8-1.2,1.4-2.2,1.8c-1,0.5-2.4,0.7-4.2,0.7c-1.8,0-3.2-0.2-4.2-0.7c-1-0.5-1.7-1.1-2.2-1.8
				c-0.5-0.7-0.7-1.6-0.8-2.6c-0.1-1-0.1-2-0.1-3v-5.6h-21v5.6c0,1,0,2-0.1,3c-0.1,1-0.4,1.8-0.8,2.6c-0.5,0.8-1.2,1.4-2.2,1.8
				c-1,0.5-2.4,0.7-4.2,0.7c-1.8,0-3.2-0.2-4.2-0.7c-1-0.5-1.7-1.1-2.2-1.8c-0.4-0.8-0.7-1.6-0.8-2.6c-0.1-0.9-0.1-1.9-0.1-2.9v-1.2
				c0-0.8,0-1.7,0-2.6c0-0.9,0-1.9,0.1-2.9c0-1,0.1-1.9,0.1-2.9c0-0.9,0.1-1.9,0.1-2.7c1.7-4.7,3.6-9.4,5.5-14.2
				c1.9-4.8,3.8-9.5,5.5-14.2c0.4-1,0.8-1.9,1.3-2.9c0.5-0.9,1.1-1.7,2-2.4c0.8-0.7,1.8-1.2,3.1-1.7c1.3-0.4,2.9-0.6,4.8-0.6h5.3
				c1.9,0,3.5,0.2,4.8,0.6c1.3,0.4,2.3,1,3.1,1.7c0.8,0.7,1.5,1.5,1.9,2.4c0.5,0.9,0.9,1.9,1.3,2.9L158.5,48.5z M125.4,44.6h16.7
				l-7.8-21.5h-1.2L125.4,44.6z"/>
		</g>
	</g>
	<g>
		<path fill="#39B54A" d="M81.5,69.1c0,6.9-5.6,12.5-12.5,12.5H12.5C5.6,81.6,0,75.9,0,69.1V12.6C0,5.7,5.6,0.1,12.5,0.1H69
			c6.9,0,12.5,5.6,12.5,12.5V69.1z"/>
	</g>
	<path fill="#FFFFFF" d="M65,33.5c-1.3-0.8-2.3-2.2-2.3-3.8c0-1,0.3-1.9,0.9-2.6c0.4-0.5,0.7-1.2,0.7-1.9c0-0.9-0.3-1.6-0.9-2.2
		c-0.7-0.8-5.7-6.8-19-14.3c-0.7-0.4-1.6-0.7-2.5-0.7c-1.1,0-2,0.3-2.8,0.9l-8,6.3c-0.7,0.5-1.6,1.6-2.6,1.6h-6
		c-2,0-4.3,1.6-4.3,3.5c0,0,0,39.8,0,40v3.1c0,2.5,2.8,4.4,5.7,4.4h3.9c2.7,0,5.4-2,5.4-4.7c0-0.9,0-1.8,0-2.8v-6.6
		c0,0,4.6,1.8,9.8,1.9c11.7,0.1,21.4-7.8,23.7-18.3c0-0.2,0-0.5,0-0.8C66.7,35.1,66.1,34.1,65,33.5z"/>
</g>
</svg>
