<?xml version="1.0" encoding="utf-8"?>
<!-- Generator: Adobe Illustrator 18.0.0, SVG Export Plug-In . SVG Version: 6.00 Build 0)  -->
<!DOCTYPE svg PUBLIC "-//W3C//DTD SVG 1.1//EN" "http://www.w3.org/Graphics/SVG/1.1/DTD/svg11.dtd">
<svg version="1.1" id="Capa_1" xmlns="http://www.w3.org/2000/svg" xmlns:xlink="http://www.w3.org/1999/xlink" x="0px" y="0px"
	 viewBox="450 0 391.9 82" enable-background="new 450 0 391.9 82" xml:space="preserve">
<g enable-background="new    ">
	<path fill="#FFFFFF" d="M548.9,35.1h-3v4h-1.3V27.3h4.3c1.3,0,2.2,0.3,2.9,0.9c0.6,0.6,0.9,1.6,0.9,2.9
		C552.7,33.8,551.4,35.1,548.9,35.1z M545.9,34h3c1.6,0,2.4-1,2.4-2.9c0-0.9-0.2-1.6-0.6-2c-0.4-0.4-1-0.6-1.9-0.6h-3V34z"/>
	<path fill="#FFFFFF" d="M556,34.6v4.5h-1.3V27.3h4.4c1.3,0,2.2,0.3,2.8,0.9s1,1.5,1,2.7c0,1.8-0.7,3-2.2,3.4l2.3,4.8h-1.5l-2.1-4.5
		H556z M559.1,33.4c1.6,0,2.4-0.8,2.4-2.5s-0.8-2.5-2.4-2.5H556v5H559.1z"/>
	<path fill="#FFFFFF" d="M574.1,33.3c0,2.1-0.3,3.6-1,4.6s-1.9,1.4-3.7,1.4c-1.8,0-3-0.5-3.7-1.5s-1-2.5-1-4.6c0-2.1,0.3-3.6,1-4.6
		c0.7-1,1.9-1.5,3.6-1.5c1.7,0,3,0.5,3.7,1.5C573.8,29.6,574.1,31.2,574.1,33.3z M566.1,33.3c0,1.7,0.2,3,0.7,3.7
		c0.5,0.8,1.3,1.1,2.6,1.1c1.3,0,2.2-0.4,2.6-1.1s0.7-2,0.7-3.7c0-1.7-0.2-3-0.7-3.8c-0.5-0.8-1.3-1.2-2.6-1.2s-2.2,0.4-2.6,1.2
		C566.4,30.3,566.1,31.5,566.1,33.3z"/>
	<path fill="#FFFFFF" d="M581.2,34.2v-1.2h3.3v5.8c-1.4,0.3-2.7,0.4-3.9,0.4c-1.7,0-2.9-0.5-3.6-1.5c-0.7-1-1-2.5-1-4.6
		c0-2.1,0.3-3.6,1-4.6c0.7-1,1.9-1.5,3.6-1.5c1.1,0,2.2,0.1,3.3,0.3l0.6,0.1l-0.1,1.1c-1.4-0.2-2.6-0.4-3.7-0.4
		c-1.3,0-2.2,0.4-2.7,1.1c-0.5,0.8-0.7,2-0.7,3.8c0,1.8,0.2,3,0.7,3.8c0.5,0.8,1.3,1.1,2.6,1.1c0.8,0,1.6-0.1,2.4-0.2v-3.6H581.2z"
		/>
	<path fill="#FFFFFF" d="M588.4,34.6v4.5h-1.3V27.3h4.4c1.3,0,2.2,0.3,2.8,0.9c0.6,0.6,1,1.5,1,2.7c0,1.8-0.7,3-2.2,3.4l2.3,4.8
		h-1.5l-2.1-4.5H588.4z M591.5,33.4c1.6,0,2.4-0.8,2.4-2.5s-0.8-2.5-2.4-2.5h-3.1v5H591.5z"/>
	<path fill="#FFFFFF" d="M596.5,39.1l3.3-11.8h2.9l3.3,11.8h-1.3l-0.9-3h-5.1l-0.9,3H596.5z M600.7,28.4l-1.8,6.5h4.5l-1.8-6.5
		H600.7z"/>
	<path fill="#FFFFFF" d="M607.7,39.1V27.3h2.4l3.4,10l3.4-10h2.4v11.8h-1.3V28.7h-0.2l-3.4,10h-1.5l-3.4-10h-0.2v10.4H607.7z"/>
	<path fill="#FFFFFF" d="M621.1,39.1l3.3-11.8h2.9l3.3,11.8h-1.3l-0.9-3h-5.1l-0.9,3H621.1z M625.3,28.4l-1.8,6.5h4.5l-1.8-6.5
		H625.3z"/>
	<path fill="#FFFFFF" d="M640.3,39.1h-4.2V27.3h4.2c1.9,0,3.2,0.8,3.8,2.3c0.4,0.9,0.5,2,0.5,3.5c0,3-0.7,4.9-2.2,5.6
		C641.9,39,641.2,39.1,640.3,39.1z M643.4,33c0-2.3-0.5-3.7-1.5-4.2c-0.4-0.2-0.9-0.3-1.5-0.3h-2.9V38h2.9
		C642.3,38,643.4,36.3,643.4,33z"/>
	<path fill="#FFFFFF" d="M647.1,39.1V27.3h7.2v1.2h-5.9v4.1h4.9v1.1h-4.9V38h5.9v1.2H647.1z"/>
</g>
<g enable-background="new    ">
	<path fill="#FFFFFF" d="M468.8,59.4l2.6-11.6h4.5l2.6,11.6h-2.4l-0.5-2.1h-4.1l-0.5,2.1H468.8z M473.2,49.7l-1.2,5.5h3.2l-1.2-5.5
		H473.2z"/>
	<path fill="#FFFFFF" d="M486.7,59.4h-6.6V47.7h2.4v9.6h4.3V59.4z"/>
	<path fill="#FFFFFF" d="M488.1,59.4V47.7h7.4v2.1h-5.1v3.4h4.1v2.1h-4.1v4.1H488.1z"/>
	<path fill="#FFFFFF" d="M495.9,59.4l2.6-11.6h4.5l2.6,11.6h-2.4l-0.5-2.1h-4.1l-0.5,2.1H495.9z M500.3,49.7l-1.2,5.5h3.2l-1.2-5.5
		H500.3z"/>
	<path fill="#FFFFFF" d="M507.2,47.7h4.6c1.2,0,2.1,0.2,2.7,0.7c0.6,0.5,0.9,1.3,0.9,2.4c0,0.7-0.1,1.2-0.3,1.5
		c-0.2,0.4-0.5,0.7-1,1c0.5,0.2,0.9,0.5,1.1,0.9s0.4,1,0.4,1.7c0,1.1-0.3,2-1,2.5s-1.6,0.8-2.8,0.8h-4.6V47.7z M511.6,49.7h-2.1v2.8
		h2.1c0.9,0,1.3-0.5,1.3-1.4C513,50.2,512.5,49.7,511.6,49.7z M511.7,54.5h-2.2v2.8h2.2c0.5,0,0.9-0.1,1.1-0.3
		c0.2-0.2,0.4-0.6,0.4-1.1C513.2,55,512.7,54.5,511.7,54.5z"/>
	<path fill="#FFFFFF" d="M517.6,59.4V47.7h7.5v2.1H520v2.7h4.1v2H520v2.8h5.2v2.1H517.6z"/>
	<path fill="#FFFFFF" d="M526,49.8v-2.1h8.6v2.1h-3.1v9.6h-2.4v-9.6H526z"/>
	<path fill="#FFFFFF" d="M536.1,59.4V47.7h2.4v11.6H536.1z"/>
	<path fill="#FFFFFF" d="M540.4,49.8v-2.1h7.7v2.1l-4.9,7.2v0.3h4.9v2.1h-7.7v-2l4.9-7.2v-0.3H540.4z"/>
	<path fill="#FFFFFF" d="M549.1,59.4l2.6-11.6h4.5l2.6,11.6h-2.4l-0.5-2.1H552l-0.5,2.1H549.1z M553.6,49.7l-1.2,5.5h3.2l-1.2-5.5
		H553.6z"/>
	<path fill="#FFFFFF" d="M567.6,59.2c-1.2,0.3-2.3,0.4-3.3,0.4c-1,0-1.7-0.1-2.3-0.4c-0.6-0.2-1-0.6-1.4-1.1
		c-0.3-0.5-0.6-1.1-0.7-1.8c-0.1-0.7-0.2-1.6-0.2-2.7c0-2.2,0.3-3.8,1-4.7s1.8-1.3,3.5-1.3c1,0,2.1,0.2,3.4,0.5l-0.1,1.9
		c-1.1-0.2-2.1-0.3-2.8-0.3c-0.7,0-1.3,0.1-1.6,0.3c-0.3,0.2-0.6,0.6-0.7,1.1c-0.2,0.6-0.2,1.5-0.2,2.9c0,1.3,0.2,2.3,0.5,2.8
		s0.9,0.8,1.9,0.8s1.9-0.1,3-0.2L567.6,59.2z"/>
	<path fill="#FFFFFF" d="M569.6,59.4V47.7h2.4v11.6H569.6z"/>
	<path fill="#FFFFFF" d="M582.5,58.1c-0.7,1-2,1.4-3.7,1.4s-3-0.5-3.7-1.4c-0.7-1-1.1-2.5-1.1-4.5c0-2.1,0.4-3.6,1.1-4.6
		c0.7-1,2-1.5,3.7-1.5s3,0.5,3.7,1.5s1.1,2.5,1.1,4.6C583.6,55.6,583.2,57.2,582.5,58.1z M576,45l4.3-1.8l0.7,2.1l-4.5,1.4L576,45z
		 M576.9,56.6c0.3,0.6,1,0.9,1.9,0.9s1.6-0.3,1.9-0.9c0.3-0.6,0.5-1.6,0.5-3c0-1.4-0.2-2.4-0.5-3.1c-0.3-0.6-1-1-1.9-1
		c-0.9,0-1.5,0.3-1.9,1s-0.5,1.7-0.5,3.1C576.4,55,576.5,56,576.9,56.6z"/>
	<path fill="#FFFFFF" d="M585.6,59.4V47.7h4l2.8,9.6h0.2v-9.6h2.4v11.6h-3.9l-2.9-9.6H588v9.6H585.6z"/>
	<path fill="#FFFFFF" d="M605.2,59.4h-3.9V47.7h3.9c1,0,1.8,0.1,2.5,0.3c0.7,0.2,1.2,0.6,1.5,1c0.4,0.5,0.6,1.1,0.7,1.7
		c0.1,0.7,0.2,1.5,0.2,2.6c0,1.1-0.1,1.9-0.2,2.6c-0.1,0.7-0.4,1.3-0.7,1.8c-0.3,0.5-0.9,0.9-1.5,1.2
		C607,59.2,606.2,59.4,605.2,59.4z M607.7,54.7c0-0.4,0-0.9,0-1.5c0-0.6,0-1.2-0.1-1.5c0-0.4-0.2-0.7-0.3-1.1
		c-0.2-0.3-0.4-0.5-0.8-0.7c-0.3-0.1-0.8-0.2-1.4-0.2h-1.6v7.5h1.6c0.9,0,1.5-0.2,1.9-0.7C607.4,56.3,607.6,55.7,607.7,54.7z"/>
	<path fill="#FFFFFF" d="M612.2,59.4V47.7h2.4v11.6H612.2z"/>
	<path fill="#FFFFFF" d="M621.9,55.2v-2.1h3.4v6c-1.6,0.3-3,0.4-4,0.4c-1.8,0-3.1-0.5-3.7-1.5c-0.7-1-1-2.5-1-4.6
		c0-2.1,0.4-3.6,1.1-4.6c0.7-0.9,1.9-1.4,3.6-1.4c1.1,0,2.2,0.1,3.4,0.4l0.6,0.1l-0.1,1.8c-1.4-0.1-2.5-0.2-3.4-0.2
		s-1.5,0.1-1.8,0.3c-0.4,0.2-0.6,0.6-0.8,1.1s-0.2,1.5-0.2,2.8c0,1.3,0.2,2.3,0.5,2.8c0.3,0.5,1,0.8,2.1,0.8l1.4-0.1v-2.3H621.9z"/>
	<path fill="#FFFFFF" d="M627.5,59.4V47.7h2.4v11.6H627.5z"/>
	<path fill="#FFFFFF" d="M631.4,49.8v-2.1h8.6v2.1h-3.1v9.6h-2.4v-9.6H631.4z"/>
	<path fill="#FFFFFF" d="M639.8,59.4l2.6-11.6h4.5l2.6,11.6h-2.4l-0.5-2.1h-4.1l-0.5,2.1H639.8z M644.3,49.7l-1.2,5.5h3.2l-1.2-5.5
		H644.3z"/>
	<path fill="#FFFFFF" d="M657.7,59.4h-6.6V47.7h2.4v9.6h4.3V59.4z"/>
</g>
<g>
	<g>
		<g>
			<path fill="#29ABE2" d="M838.6,59c0,4.3-3.5,7.8-7.8,7.8h-35c-4.3,0-7.8-3.5-7.8-7.8V24c0-4.3,3.5-7.8,7.8-7.8h35
				c4.3,0,7.8,3.5,7.8,7.8V59z"/>
			<path fill="#FFFFFF" d="M813.5,24.1c2,0,3.8,0.2,5.5,0.6c1.7,0.4,3.2,1,4.5,1.7c1.3,0.8,2.3,1.7,3,2.8c0.7,1.1,1.1,2.5,1.1,4
				v15.4c0,1.3-0.2,2.4-0.6,3.4c-0.4,1-0.9,1.8-1.5,2.6c-0.6,0.7-1.3,1.3-2,1.8c-0.8,0.5-1.5,0.9-2.3,1.2c-1.9,0.8-4,1.2-6.4,1.3
				H804c-1.2,0-2.2-0.2-2.9-0.5c-0.7-0.3-1.2-0.8-1.5-1.3c-0.3-0.5-0.5-1.1-0.5-1.8c0-0.7-0.1-1.4-0.1-2.1V29.7c0-0.7,0-1.4,0.1-2.1
				c0.1-0.7,0.2-1.3,0.5-1.8c0.3-0.5,0.8-1,1.5-1.3c0.7-0.3,1.6-0.5,2.9-0.5H813.5z M809,29.9V53h4.2c0.9,0,1.8-0.2,2.5-0.5
				c0.3-0.1,0.6-0.3,0.9-0.5c0.3-0.2,0.6-0.4,0.8-0.7c0.2-0.3,0.4-0.6,0.6-1c0.1-0.4,0.2-0.8,0.2-1.3V34.3c0-0.5-0.1-1-0.2-1.5
				c-0.1-0.4-0.3-0.8-0.6-1.1c-0.2-0.3-0.5-0.6-0.8-0.8c-0.3-0.2-0.6-0.4-0.9-0.5c-0.7-0.3-1.6-0.5-2.5-0.5H809z"/>
		</g>
		<g>
			<path fill="#FF0013" d="M780.9,58.7c0,4.3-3.5,7.8-7.8,7.8h-35c-4.3,0-7.8-3.5-7.8-7.8v-35c0-4.3,3.5-7.8,7.8-7.8h35
				c4.3,0,7.8,3.5,7.8,7.8V58.7z"/>
			<path fill="#FFFFFF" d="M771,46c0,1.1,0.1,2.3,0.2,3.5c0.1,1.2,0.1,2.3,0.1,3.4v0.7c0,0.6,0,1.2-0.1,1.8c0,0.6-0.2,1.1-0.5,1.6
				c-0.3,0.5-0.7,0.8-1.3,1.1c-0.6,0.3-1.5,0.4-2.6,0.4c-1.1,0-2-0.1-2.6-0.4c-0.6-0.3-1.1-0.7-1.4-1.1c-0.3-0.5-0.5-1-0.5-1.6
				c-0.1-0.6-0.1-1.2-0.1-1.8v-3.5h-13v3.5c0,0.6,0,1.2-0.1,1.8c-0.1,0.6-0.2,1.1-0.5,1.6c-0.3,0.5-0.7,0.8-1.3,1.1
				c-0.6,0.3-1.5,0.4-2.6,0.4c-1.1,0-2-0.1-2.6-0.4c-0.6-0.3-1.1-0.7-1.3-1.1c-0.3-0.5-0.4-1-0.5-1.6c0-0.6-0.1-1.2-0.1-1.8v-0.7
				c0-0.5,0-1.1,0-1.6c0-0.6,0-1.2,0-1.8c0-0.6,0-1.2,0.1-1.8c0-0.6,0-1.2,0.1-1.7c1.1-2.9,2.2-5.8,3.4-8.8c1.2-3,2.3-5.9,3.4-8.8
				c0.2-0.6,0.5-1.2,0.8-1.8c0.3-0.6,0.7-1.1,1.2-1.5c0.5-0.4,1.1-0.8,1.9-1c0.8-0.3,1.8-0.4,3-0.4h3.3c1.2,0,2.2,0.1,3,0.4
				c0.8,0.3,1.4,0.6,1.9,1c0.5,0.4,0.9,0.9,1.2,1.5c0.3,0.6,0.6,1.2,0.8,1.8L771,46z M750.5,43.6h10.4L756,30.2h-0.7L750.5,43.6z"/>
		</g>
	</g>
	<g>
		<path fill="#39B54A" d="M723.2,58.7c0,4.3-3.5,7.8-7.8,7.8h-35c-4.3,0-7.8-3.5-7.8-7.8v-35c0-4.3,3.5-7.8,7.8-7.8h35
			c4.3,0,7.8,3.5,7.8,7.8V58.7z"/>
	</g>
	<path fill="#FFFFFF" d="M713.1,36.7c-0.8-0.5-1.4-1.4-1.4-2.4c0-0.6,0.2-1.2,0.6-1.6c0.3-0.3,0.4-0.8,0.4-1.2c0-0.5-0.2-1-0.5-1.4
		c-0.4-0.5-3.6-4.2-11.8-8.9c-0.5-0.3-1-0.4-1.6-0.4c-0.7,0-1.3,0.2-1.8,0.5l-5,4.3c-0.5,0.3-1,1.4-1.6,1.4h-3.7
		c-1.2,0-2.7,0.2-2.7,1.3c0,0,0,24.7,0,24.8v1.9c0,1.6,1.8,3.9,3.6,3.9h2.4c1.7,0,3.2-1.8,3.2-3.5c0-0.6-0.2-1.7-0.2-2.3v-4.1
		c0,0,3,1.1,6.2,1.2c7.2,0,13.4-4.9,14.8-11.3c0-0.1,0.1-0.3,0.1-0.5C714.1,37.7,713.7,37.1,713.1,36.7z"/>
</g>
</svg>
