<?xml version="1.0" encoding="utf-8"?>
<!-- Generator: Adobe Illustrator 18.0.0, SVG Export Plug-In . SVG Version: 6.00 Build 0)  -->
<!DOCTYPE svg PUBLIC "-//W3C//DTD SVG 1.1//EN" "http://www.w3.org/Graphics/SVG/1.1/DTD/svg11.dtd">
<svg version="1.1" id="Capa_1" xmlns="http://www.w3.org/2000/svg" xmlns:xlink="http://www.w3.org/1999/xlink" x="0px" y="0px"
	 viewBox="589 49.7 264 45.5" enable-background="new 589 49.7 264 45.5" xml:space="preserve">
<g enable-background="new    ">
	<path fill="#FFFFFF" d="M693.4,69.2h-1.6v2.1h-0.7v-6.1h2.2c0.7,0,1.1,0.2,1.5,0.5c0.3,0.3,0.5,0.8,0.5,1.5
		C695.4,68.5,694.7,69.2,693.4,69.2z M691.8,68.6h1.6c0.8,0,1.2-0.5,1.2-1.5c0-0.5-0.1-0.8-0.3-1s-0.5-0.3-1-0.3h-1.6L691.8,68.6
		L691.8,68.6z"/>
	<path fill="#FFFFFF" d="M697.1,68.9v2.3h-0.7v-6.1h2.3c0.7,0,1.1,0.2,1.5,0.5c0.3,0.3,0.5,0.8,0.5,1.4c0,0.9-0.4,1.6-1.1,1.8
		l1.2,2.5h-0.8l-1.1-2.3H697.1z M698.7,68.3c0.8,0,1.2-0.4,1.2-1.3c0-0.9-0.4-1.3-1.2-1.3h-1.6v2.6H698.7z"/>
	<path fill="#FFFFFF" d="M706.5,68.2c0,1.1-0.2,1.9-0.5,2.4c-0.4,0.5-1,0.7-1.9,0.7s-1.6-0.3-1.9-0.8c-0.4-0.5-0.5-1.3-0.5-2.4
		s0.2-1.9,0.5-2.4c0.4-0.5,1-0.8,1.9-0.8s1.6,0.3,1.9,0.8C706.3,66.3,706.5,67.1,706.5,68.2z M702.3,68.2c0,0.9,0.1,1.6,0.4,1.9
		c0.3,0.4,0.7,0.6,1.4,0.6s1.1-0.2,1.4-0.6c0.2-0.4,0.4-1,0.4-1.9s-0.1-1.6-0.4-2s-0.7-0.6-1.4-0.6s-1.1,0.2-1.4,0.6
		C702.5,66.7,702.3,67.3,702.3,68.2z"/>
	<path fill="#FFFFFF" d="M710.2,68.7v-0.6h1.7v3c-0.7,0.2-1.4,0.2-2,0.2c-0.9,0-1.5-0.3-1.9-0.8c-0.4-0.5-0.5-1.3-0.5-2.4
		c0-1.1,0.2-1.9,0.5-2.4c0.4-0.5,1-0.8,1.9-0.8c0.6,0,1.1,0.1,1.7,0.2l0.3,0.1l-0.1,0.6c-0.7-0.1-1.4-0.2-1.9-0.2
		c-0.7,0-1.1,0.2-1.4,0.6c-0.3,0.4-0.4,1-0.4,2c0,0.9,0.1,1.6,0.4,2c0.3,0.4,0.7,0.6,1.4,0.6c0.4,0,0.8-0.1,1.2-0.1v-1.9L710.2,68.7
		L710.2,68.7z"/>
	<path fill="#FFFFFF" d="M713.9,68.9v2.3h-0.7v-6.1h2.3c0.7,0,1.1,0.2,1.5,0.5c0.3,0.3,0.5,0.8,0.5,1.4c0,0.9-0.4,1.6-1.1,1.8
		l1.2,2.5h-0.8l-1.1-2.3H713.9z M715.5,68.3c0.8,0,1.2-0.4,1.2-1.3c0-0.9-0.4-1.3-1.2-1.3h-1.6v2.6H715.5z"/>
	<path fill="#FFFFFF" d="M718.1,71.3l1.7-6.1h1.5l1.7,6.1h-0.7l-0.5-1.6h-2.7l-0.5,1.6H718.1z M720.3,65.7l-0.9,3.4h2.3l-0.9-3.4
		C720.8,65.7,720.3,65.7,720.3,65.7z"/>
	<path fill="#FFFFFF" d="M724,71.3v-6.1h1.2l1.8,5.2l1.8-5.2h1.2v6.1h-0.7v-5.4h-0.1l-1.8,5.2h-0.8l-1.8-5.2h-0.1v5.4H724z"/>
	<path fill="#FFFFFF" d="M730.9,71.3l1.7-6.1h1.5l1.7,6.1h-0.7l-0.5-1.6h-2.7l-0.5,1.6H730.9z M733.1,65.7l-0.9,3.4h2.3l-0.9-3.4
		C733.6,65.7,733.1,65.7,733.1,65.7z"/>
	<path fill="#FFFFFF" d="M740.9,71.3h-2.2v-6.1h2.2c1,0,1.7,0.4,2,1.2c0.2,0.5,0.3,1,0.3,1.8c0,1.6-0.4,2.5-1.1,2.9
		C741.7,71.2,741.4,71.3,740.9,71.3z M742.5,68.1c0-1.2-0.3-1.9-0.8-2.2c-0.2-0.1-0.5-0.2-0.8-0.2h-1.5v4.9h1.5
		C741.9,70.7,742.5,69.8,742.5,68.1z"/>
	<path fill="#FFFFFF" d="M744.4,71.3v-6.1h3.7v0.6h-3.1v2.1h2.5v0.6h-2.5v2.2h3.1v0.6L744.4,71.3L744.4,71.3z"/>
</g>
<g enable-background="new    ">
	<path fill="#FFFFFF" d="M690.3,81.8l1.4-6h2.3l1.4,6h-1.2l-0.3-1.1h-2.1l-0.3,1.1H690.3z M692.6,76.8l-0.6,2.9h1.7l-0.6-2.9H692.6z
		"/>
	<path fill="#FFFFFF" d="M699.6,81.8h-3.4v-6.1h1.2v5h2.2L699.6,81.8L699.6,81.8z"/>
	<path fill="#FFFFFF" d="M700.4,81.8v-6.1h3.8v1.1h-2.7v1.8h2.1v1.1h-2.1v2.1C701.6,81.8,700.4,81.8,700.4,81.8z"/>
	<path fill="#FFFFFF" d="M704.4,81.8l1.4-6h2.3l1.4,6h-1.2l-0.3-1.1h-2.1l-0.3,1.1H704.4z M706.7,76.8l-0.6,2.9h1.7l-0.6-2.9H706.7z
		"/>
	<path fill="#FFFFFF" d="M710.3,75.7h2.4c0.6,0,1.1,0.1,1.4,0.4s0.5,0.7,0.5,1.2c0,0.4-0.1,0.6-0.2,0.8c-0.1,0.2-0.3,0.4-0.5,0.5
		c0.3,0.1,0.5,0.3,0.6,0.5c0.1,0.2,0.2,0.5,0.2,0.9c0,0.6-0.2,1-0.5,1.3c-0.4,0.3-0.8,0.4-1.5,0.4h-2.4V75.7L710.3,75.7z
		 M712.6,76.8h-1.1v1.5h1.1c0.5,0,0.7-0.3,0.7-0.7C713.3,77,713.1,76.8,712.6,76.8z M712.6,79.3h-1.1v1.5h1.1c0.3,0,0.5-0.1,0.6-0.2
		c0.1-0.1,0.2-0.3,0.2-0.6C713.4,79.5,713.2,79.3,712.6,79.3z"/>
	<path fill="#FFFFFF" d="M715.7,81.8v-6.1h3.9v1.1H717v1.4h2.1v1H717v1.5h2.7v1.1C719.7,81.8,715.7,81.8,715.7,81.8z"/>
	<path fill="#FFFFFF" d="M720.1,76.8v-1.1h4.5v1.1h-1.6v5h-1.2v-5C721.7,76.8,720.1,76.8,720.1,76.8z"/>
	<path fill="#FFFFFF" d="M725.3,81.8v-6.1h1.2v6L725.3,81.8L725.3,81.8z"/>
	<path fill="#FFFFFF" d="M727.6,76.8v-1.1h4v1.1l-2.5,3.7v0.2h2.5v1.1h-4v-1l2.5-3.7v-0.2L727.6,76.8L727.6,76.8z"/>
	<path fill="#FFFFFF" d="M732.1,81.8l1.4-6h2.3l1.4,6h-1.2l-0.3-1.1h-2l-0.3,1.1H732.1z M734.4,76.8l-0.6,2.9h1.7l-0.6-2.9H734.4z"
		/>
	<path fill="#FFFFFF" d="M741.7,81.7c-0.6,0.2-1.2,0.2-1.7,0.2c-0.5,0-0.9-0.1-1.2-0.2c-0.3-0.1-0.5-0.3-0.7-0.6
		c-0.2-0.3-0.3-0.6-0.4-0.9c-0.1-0.4-0.1-0.8-0.1-1.4c0-1.1,0.2-2,0.5-2.4c0.4-0.5,0.9-0.7,1.8-0.7c0.5,0,1.1,0.1,1.8,0.3l-0.1,1
		c-0.6-0.1-1.1-0.2-1.5-0.2c-0.4,0-0.7,0.1-0.8,0.2c-0.2,0.1-0.3,0.3-0.4,0.6c-0.1,0.3-0.1,0.8-0.1,1.5c0,0.7,0.1,1.2,0.3,1.5
		c0.2,0.3,0.5,0.4,1,0.4c0.5,0,1-0.1,1.6-0.1L741.7,81.7z"/>
	<path fill="#FFFFFF" d="M742.8,81.8v-6.1h1.2v6L742.8,81.8L742.8,81.8z"/>
	<path fill="#FFFFFF" d="M749.5,81.1c-0.4,0.5-1,0.7-1.9,0.7s-1.6-0.3-1.9-0.7c-0.4-0.5-0.6-1.3-0.6-2.3c0-1.1,0.2-1.9,0.6-2.4
		c0.4-0.5,1-0.8,1.9-0.8s1.6,0.3,1.9,0.8c0.4,0.5,0.6,1.3,0.6,2.4C750,79.8,749.8,80.7,749.5,81.1z M746.1,74.3l2.2-0.9l0.4,1.1
		l-2.3,0.7L746.1,74.3z M746.6,80.4c0.2,0.3,0.5,0.5,1,0.5c0.5,0,0.8-0.2,1-0.5c0.2-0.3,0.3-0.8,0.3-1.6c0-0.7-0.1-1.2-0.3-1.6
		c-0.2-0.3-0.5-0.5-1-0.5c-0.5,0-0.8,0.2-1,0.5c-0.2,0.4-0.3,0.9-0.3,1.6C746.3,79.5,746.3,80,746.6,80.4z"/>
	<path fill="#FFFFFF" d="M751.1,81.8v-6.1h2.1l1.5,5h0.1v-5h1.2v6h-2l-1.5-5h-0.1v5L751.1,81.8L751.1,81.8z"/>
	<path fill="#FFFFFF" d="M761.3,81.8h-2v-6.1h2c0.5,0,0.9,0.1,1.3,0.2c0.4,0.1,0.6,0.3,0.8,0.5c0.2,0.3,0.3,0.6,0.4,0.9
		c0.1,0.4,0.1,0.8,0.1,1.4s-0.1,1-0.1,1.4c-0.1,0.4-0.2,0.7-0.4,0.9c-0.2,0.3-0.5,0.5-0.8,0.6C762.2,81.7,761.8,81.8,761.3,81.8z
		 M762.6,79.4c0-0.2,0-0.5,0-0.8s0-0.6-0.1-0.8c0-0.2-0.1-0.4-0.2-0.6c-0.1-0.2-0.2-0.3-0.4-0.4c-0.2-0.1-0.4-0.1-0.7-0.1h-0.8v3.9
		h0.8c0.5,0,0.8-0.1,1-0.4C762.4,80.2,762.5,79.9,762.6,79.4z"/>
	<path fill="#FFFFFF" d="M764.9,81.8v-6.1h1.2v6L764.9,81.8L764.9,81.8z"/>
	<path fill="#FFFFFF" d="M770,79.6v-1.1h1.8v3.1c-0.8,0.2-1.6,0.2-2.1,0.2c-0.9,0-1.6-0.3-1.9-0.8c-0.4-0.5-0.5-1.3-0.5-2.4
		c0-1.1,0.2-1.9,0.6-2.4c0.4-0.5,1-0.7,1.9-0.7c0.6,0,1.1,0.1,1.8,0.2l0.3,0.1l-0.1,0.9c-0.7-0.1-1.3-0.1-1.8-0.1
		c-0.5,0-0.8,0.1-0.9,0.2c-0.2,0.1-0.3,0.3-0.4,0.6c-0.1,0.3-0.1,0.8-0.1,1.5s0.1,1.2,0.3,1.5c0.2,0.3,0.5,0.4,1.1,0.4l0.7-0.1v-1.2
		H770V79.6z"/>
	<path fill="#FFFFFF" d="M772.9,81.8v-6.1h1.2v6L772.9,81.8L772.9,81.8z"/>
	<path fill="#FFFFFF" d="M774.9,76.8v-1.1h4.5v1.1h-1.6v5h-1.2v-5C776.5,76.8,774.9,76.8,774.9,76.8z"/>
	<path fill="#FFFFFF" d="M779.3,81.8l1.4-6h2.3l1.4,6h-1.2l-0.3-1.1h-2.1l-0.3,1.1H779.3z M781.6,76.8l-0.6,2.9h1.7l-0.6-2.9H781.6z
		"/>
	<path fill="#FFFFFF" d="M788.6,81.8h-3.4v-6.1h1.2v5h2.2L788.6,81.8L788.6,81.8z"/>
</g>
<g>
	<g>
		<g>
			<path fill="#29ABE2" d="M681.2,81.6c0,2.2-1.8,4.1-4.1,4.1H659c-2.2,0-4.1-1.8-4.1-4.1V63.4c0-2.2,1.8-4.1,4.1-4.1h18.2
				c2.2,0,4.1,1.8,4.1,4.1V81.6z"/>
			<path fill="#FFFFFF" d="M668.2,63.5c1,0,2,0.1,2.9,0.3c0.9,0.2,1.7,0.5,2.3,0.9c0.7,0.4,1.2,0.9,1.6,1.5s0.6,1.3,0.6,2.1v8
				c0,0.7-0.1,1.2-0.3,1.8c-0.2,0.5-0.5,0.9-0.8,1.4c-0.3,0.4-0.7,0.7-1,0.9c-0.4,0.3-0.8,0.5-1.2,0.6c-1,0.4-2.1,0.6-3.3,0.7h-5.6
				c-0.6,0-1.1-0.1-1.5-0.3c-0.4-0.2-0.6-0.4-0.8-0.7s-0.3-0.6-0.3-0.9c0-0.4-0.1-0.7-0.1-1.1V66.4c0-0.4,0-0.7,0.1-1.1
				s0.1-0.7,0.3-0.9s0.4-0.5,0.8-0.7c0.4-0.2,0.8-0.3,1.5-0.3L668.2,63.5L668.2,63.5z M665.8,66.5v12h2.2c0.5,0,0.9-0.1,1.3-0.3
				c0.2-0.1,0.3-0.2,0.5-0.3c0.2-0.1,0.3-0.2,0.4-0.4c0.1-0.2,0.2-0.3,0.3-0.5c0.1-0.2,0.1-0.4,0.1-0.7v-7.6c0-0.3-0.1-0.5-0.1-0.8
				c-0.1-0.2-0.2-0.4-0.3-0.6c-0.1-0.2-0.3-0.3-0.4-0.4s-0.3-0.2-0.5-0.3c-0.4-0.2-0.8-0.3-1.3-0.3H665.8z"/>
		</g>
		<g>
			<path fill="#FF0013" d="M651.2,81.4c0,2.2-1.8,4.1-4.1,4.1H629c-2.2,0-4.1-1.8-4.1-4.1V63.2c0-2.2,1.8-4.1,4.1-4.1h18.2
				c2.2,0,4.1,1.8,4.1,4.1V81.4z"/>
			<path fill="#FFFFFF" d="M646.1,74.8c0,0.6,0.1,1.2,0.1,1.8s0.1,1.2,0.1,1.8v0.4c0,0.3,0,0.6-0.1,0.9c0,0.3-0.1,0.6-0.3,0.8
				c-0.2,0.3-0.4,0.4-0.7,0.6c-0.3,0.2-0.8,0.2-1.4,0.2s-1-0.1-1.4-0.2c-0.3-0.2-0.6-0.4-0.7-0.6c-0.2-0.3-0.3-0.5-0.3-0.8
				c-0.1-0.3-0.1-0.6-0.1-0.9V77h-6.8v1.8c0,0.3,0,0.6-0.1,0.9c-0.1,0.3-0.1,0.6-0.3,0.8c-0.2,0.3-0.4,0.4-0.7,0.6
				c-0.3,0.2-0.8,0.2-1.4,0.2s-1-0.1-1.4-0.2c-0.3-0.2-0.6-0.4-0.7-0.6c-0.2-0.3-0.2-0.5-0.3-0.8c0-0.3-0.1-0.6-0.1-0.9v-0.4
				c0-0.3,0-0.6,0-0.8c0-0.3,0-0.6,0-0.9c0-0.3,0-0.6,0.1-0.9c0-0.3,0-0.6,0.1-0.9c0.6-1.5,1.1-3,1.8-4.6c0.6-1.6,1.2-3.1,1.8-4.6
				c0.1-0.3,0.3-0.6,0.4-0.9c0.2-0.3,0.4-0.6,0.6-0.8c0.3-0.2,0.6-0.4,1-0.5c0.4-0.2,0.9-0.2,1.6-0.2h1.7c0.6,0,1.1,0.1,1.6,0.2
				c0.4,0.2,0.7,0.3,1,0.5c0.3,0.2,0.5,0.5,0.6,0.8c0.2,0.3,0.3,0.6,0.4,0.9L646.1,74.8z M635.4,73.6h5.4l-2.5-7h-0.4L635.4,73.6z"
				/>
		</g>
	</g>
	<g>
		<path fill="#39B54A" d="M621.2,81.4c0,2.2-1.8,4.1-4.1,4.1H599c-2.2,0-4.1-1.8-4.1-4.1V63.2c0-2.2,1.8-4.1,4.1-4.1h18.2
			c2.2,0,4.1,1.8,4.1,4.1V81.4z"/>
	</g>
	<path fill="#FFFFFF" d="M616,70c-0.4-0.3-0.7-0.7-0.7-1.2c0-0.3,0.1-0.6,0.3-0.8c0.2-0.2,0.2-0.4,0.2-0.6c0-0.3-0.1-0.5-0.3-0.7
		c-0.2-0.3-1.9-2.2-6.1-4.6c-0.3-0.2-0.5-0.2-0.8-0.2c-0.4,0-0.7,0.1-0.9,0.3l-2.6,2.2c-0.3,0.2-0.5,0.7-0.8,0.7h-1.9
		c-0.6,0-1.4,0.1-1.4,0.7c0,0,0,12.8,0,12.9v1c0,0.8,0.9,2,1.9,2h1.2c0.9,0,1.7-0.9,1.7-1.8c0-0.3-0.1-0.9-0.1-1.2v-2.1
		c0,0,1.6,0.6,3.2,0.6c3.7,0,7-2.5,7.7-5.9c0-0.1,0.1-0.2,0.1-0.3C616.5,70.5,616.3,70.2,616,70z"/>
</g>
</svg>
