<?xml version="1.0" encoding="UTF-8" standalone="no"?>
<!-- Generator: Adobe Illustrator 18.0.0, SVG Export Plug-In . SVG Version: 6.00 Build 0)  -->

<svg
   xmlns:dc="http://purl.org/dc/elements/1.1/"
   xmlns:cc="http://creativecommons.org/ns#"
   xmlns:rdf="http://www.w3.org/1999/02/22-rdf-syntax-ns#"
   xmlns:svg="http://www.w3.org/2000/svg"
   xmlns="http://www.w3.org/2000/svg"
   xmlns:sodipodi="http://sodipodi.sourceforge.net/DTD/sodipodi-0.dtd"
   xmlns:inkscape="http://www.inkscape.org/namespaces/inkscape"
   version="1.1"
   id="Capa_1"
   x="0px"
   y="0px"
   viewBox="589 49.7 201 45.5"
   enable-background="new 589 49.7 264 45.5"
   xml:space="preserve"
   inkscape:version="0.91 r13725"
   sodipodi:docname="pad_logo.svg"
   width="201"
   height="45.5"><metadata
     id="metadata95"><rdf:RDF><cc:Work
         rdf:about=""><dc:format>image/svg+xml</dc:format><dc:type
           rdf:resource="http://purl.org/dc/dcmitype/StillImage" /><dc:title></dc:title></cc:Work></rdf:RDF></metadata><defs
     id="defs93" /><sodipodi:namedview
     pagecolor="#ffffff"
     bordercolor="#666666"
     borderopacity="1"
     objecttolerance="10"
     gridtolerance="10"
     guidetolerance="10"
     inkscape:pageopacity="0"
     inkscape:pageshadow="2"
     inkscape:window-width="1366"
     inkscape:window-height="705"
     id="namedview91"
     showgrid="false"
     inkscape:zoom="4.0282653"
     inkscape:cx="131.51886"
     inkscape:cy="5.0841471"
     inkscape:window-x="-8"
     inkscape:window-y="-8"
     inkscape:window-maximized="1"
     inkscape:current-layer="Capa_1" /><g
     enable-background="new    "
     id="g3"
     style="fill:#ffffff"
     transform="translate(0.5105251,0)"><path
       d="m 693.4,69.2 -1.6,0 0,2.1 -0.7,0 0,-6.1 2.2,0 c 0.7,0 1.1,0.2 1.5,0.5 0.3,0.3 0.5,0.8 0.5,1.5 0.1,1.3 -0.6,2 -1.9,2 z m -1.6,-0.6 1.6,0 c 0.8,0 1.2,-0.5 1.2,-1.5 0,-0.5 -0.1,-0.8 -0.3,-1 -0.2,-0.2 -0.5,-0.3 -1,-0.3 l -1.6,0 0.1,2.8 0,0 z"
       id="path5"
       style="fill:#ffffff"
       inkscape:connector-curvature="0" /><path
       d="m 697.1,68.9 0,2.3 -0.7,0 0,-6.1 2.3,0 c 0.7,0 1.1,0.2 1.5,0.5 0.3,0.3 0.5,0.8 0.5,1.4 0,0.9 -0.4,1.6 -1.1,1.8 l 1.2,2.5 -0.8,0 -1.1,-2.3 -1.8,0 z m 1.6,-0.6 c 0.8,0 1.2,-0.4 1.2,-1.3 0,-0.9 -0.4,-1.3 -1.2,-1.3 l -1.6,0 0,2.6 1.6,0 z"
       id="path7"
       style="fill:#ffffff"
       inkscape:connector-curvature="0" /><path
       d="m 706.5,68.2 c 0,1.1 -0.2,1.9 -0.5,2.4 -0.4,0.5 -1,0.7 -1.9,0.7 -0.9,0 -1.6,-0.3 -1.9,-0.8 -0.4,-0.5 -0.5,-1.3 -0.5,-2.4 0,-1.1 0.2,-1.9 0.5,-2.4 0.4,-0.5 1,-0.8 1.9,-0.8 0.9,0 1.6,0.3 1.9,0.8 0.3,0.6 0.5,1.4 0.5,2.5 z m -4.2,0 c 0,0.9 0.1,1.6 0.4,1.9 0.3,0.4 0.7,0.6 1.4,0.6 0.7,0 1.1,-0.2 1.4,-0.6 0.2,-0.4 0.4,-1 0.4,-1.9 0,-0.9 -0.1,-1.6 -0.4,-2 -0.3,-0.4 -0.7,-0.6 -1.4,-0.6 -0.7,0 -1.1,0.2 -1.4,0.6 -0.2,0.5 -0.4,1.1 -0.4,2 z"
       id="path9"
       style="fill:#ffffff"
       inkscape:connector-curvature="0" /><path
       d="m 710.2,68.7 0,-0.6 1.7,0 0,3 c -0.7,0.2 -1.4,0.2 -2,0.2 -0.9,0 -1.5,-0.3 -1.9,-0.8 -0.4,-0.5 -0.5,-1.3 -0.5,-2.4 0,-1.1 0.2,-1.9 0.5,-2.4 0.4,-0.5 1,-0.8 1.9,-0.8 0.6,0 1.1,0.1 1.7,0.2 l 0.3,0.1 -0.1,0.6 c -0.7,-0.1 -1.4,-0.2 -1.9,-0.2 -0.7,0 -1.1,0.2 -1.4,0.6 -0.3,0.4 -0.4,1 -0.4,2 0,0.9 0.1,1.6 0.4,2 0.3,0.4 0.7,0.6 1.4,0.6 0.4,0 0.8,-0.1 1.2,-0.1 l 0,-1.9 -0.9,-0.1 0,0 z"
       id="path11"
       style="fill:#ffffff"
       inkscape:connector-curvature="0" /><path
       d="m 713.9,68.9 0,2.3 -0.7,0 0,-6.1 2.3,0 c 0.7,0 1.1,0.2 1.5,0.5 0.3,0.3 0.5,0.8 0.5,1.4 0,0.9 -0.4,1.6 -1.1,1.8 l 1.2,2.5 -0.8,0 -1.1,-2.3 -1.8,0 z m 1.6,-0.6 c 0.8,0 1.2,-0.4 1.2,-1.3 0,-0.9 -0.4,-1.3 -1.2,-1.3 l -1.6,0 0,2.6 1.6,0 z"
       id="path13"
       style="fill:#ffffff"
       inkscape:connector-curvature="0" /><path
       d="m 718.1,71.3 1.7,-6.1 1.5,0 1.7,6.1 -0.7,0 -0.5,-1.6 -2.7,0 -0.5,1.6 -0.5,0 z m 2.2,-5.6 -0.9,3.4 2.3,0 -0.9,-3.4 c 0,0 -0.5,0 -0.5,0 z"
       id="path15"
       style="fill:#ffffff"
       inkscape:connector-curvature="0" /><path
       d="m 724,71.3 0,-6.1 1.2,0 1.8,5.2 1.8,-5.2 1.2,0 0,6.1 -0.7,0 0,-5.4 -0.1,0 -1.8,5.2 -0.8,0 -1.8,-5.2 -0.1,0 0,5.4 -0.7,0 z"
       id="path17"
       style="fill:#ffffff"
       inkscape:connector-curvature="0" /><path
       d="m 730.9,71.3 1.7,-6.1 1.5,0 1.7,6.1 -0.7,0 -0.5,-1.6 -2.7,0 -0.5,1.6 -0.5,0 z m 2.2,-5.6 -0.9,3.4 2.3,0 -0.9,-3.4 c 0,0 -0.5,0 -0.5,0 z"
       id="path19"
       style="fill:#ffffff"
       inkscape:connector-curvature="0" /><path
       d="m 740.9,71.3 -2.2,0 0,-6.1 2.2,0 c 1,0 1.7,0.4 2,1.2 0.2,0.5 0.3,1 0.3,1.8 0,1.6 -0.4,2.5 -1.1,2.9 -0.4,0.1 -0.7,0.2 -1.2,0.2 z m 1.6,-3.2 c 0,-1.2 -0.3,-1.9 -0.8,-2.2 -0.2,-0.1 -0.5,-0.2 -0.8,-0.2 l -1.5,0 0,4.9 1.5,0 c 1,0.1 1.6,-0.8 1.6,-2.5 z"
       id="path21"
       style="fill:#ffffff"
       inkscape:connector-curvature="0" /><path
       d="m 744.4,71.3 0,-6.1 3.7,0 0,0.6 -3.1,0 0,2.1 2.5,0 0,0.6 -2.5,0 0,2.2 3.1,0 0,0.6 -3.7,0 0,0 z"
       id="path23"
       style="fill:#ffffff"
       inkscape:connector-curvature="0" /></g><g
     enable-background="new    "
     id="g25"
     style="fill:#ffffff"
     transform="translate(0.5105251,0)"><path
       d="m 690.3,81.8 1.4,-6 2.3,0 1.4,6 -1.2,0 -0.3,-1.1 -2.1,0 -0.3,1.1 -1.2,0 z m 2.3,-5 -0.6,2.9 1.7,0 -0.6,-2.9 -0.5,0 z"
       id="path27"
       style="fill:#ffffff"
       inkscape:connector-curvature="0" /><path
       d="m 699.6,81.8 -3.4,0 0,-6.1 1.2,0 0,5 2.2,0 0,1.1 0,0 z"
       id="path29"
       style="fill:#ffffff"
       inkscape:connector-curvature="0" /><path
       d="m 700.4,81.8 0,-6.1 3.8,0 0,1.1 -2.7,0 0,1.8 2.1,0 0,1.1 -2.1,0 0,2.1 c 0.1,0 -1.1,0 -1.1,0 z"
       id="path31"
       style="fill:#ffffff"
       inkscape:connector-curvature="0" /><path
       d="m 704.4,81.8 1.4,-6 2.3,0 1.4,6 -1.2,0 -0.3,-1.1 -2.1,0 -0.3,1.1 -1.2,0 z m 2.3,-5 -0.6,2.9 1.7,0 -0.6,-2.9 -0.5,0 z"
       id="path33"
       style="fill:#ffffff"
       inkscape:connector-curvature="0" /><path
       d="m 710.3,75.7 2.4,0 c 0.6,0 1.1,0.1 1.4,0.4 0.3,0.3 0.5,0.7 0.5,1.2 0,0.4 -0.1,0.6 -0.2,0.8 -0.1,0.2 -0.3,0.4 -0.5,0.5 0.3,0.1 0.5,0.3 0.6,0.5 0.1,0.2 0.2,0.5 0.2,0.9 0,0.6 -0.2,1 -0.5,1.3 -0.4,0.3 -0.8,0.4 -1.5,0.4 l -2.4,0 0,-6 0,0 z m 2.3,1.1 -1.1,0 0,1.5 1.1,0 c 0.5,0 0.7,-0.3 0.7,-0.7 0,-0.6 -0.2,-0.8 -0.7,-0.8 z m 0,2.5 -1.1,0 0,1.5 1.1,0 c 0.3,0 0.5,-0.1 0.6,-0.2 0.1,-0.1 0.2,-0.3 0.2,-0.6 0,-0.5 -0.2,-0.7 -0.8,-0.7 z"
       id="path35"
       style="fill:#ffffff"
       inkscape:connector-curvature="0" /><path
       d="m 715.7,81.8 0,-6.1 3.9,0 0,1.1 -2.6,0 0,1.4 2.1,0 0,1 -2.1,0 0,1.5 2.7,0 0,1.1 c 0,0 -4,0 -4,0 z"
       id="path37"
       style="fill:#ffffff"
       inkscape:connector-curvature="0" /><path
       d="m 720.1,76.8 0,-1.1 4.5,0 0,1.1 -1.6,0 0,5 -1.2,0 0,-5 c -0.1,0 -1.7,0 -1.7,0 z"
       id="path39"
       style="fill:#ffffff"
       inkscape:connector-curvature="0" /><path
       d="m 725.3,81.8 0,-6.1 1.2,0 0,6 -1.2,0.1 0,0 z"
       id="path41"
       style="fill:#ffffff"
       inkscape:connector-curvature="0" /><path
       d="m 727.6,76.8 0,-1.1 4,0 0,1.1 -2.5,3.7 0,0.2 2.5,0 0,1.1 -4,0 0,-1 2.5,-3.7 0,-0.2 -2.5,-0.1 0,0 z"
       id="path43"
       style="fill:#ffffff"
       inkscape:connector-curvature="0" /><path
       d="m 732.1,81.8 1.4,-6 2.3,0 1.4,6 -1.2,0 -0.3,-1.1 -2,0 -0.3,1.1 -1.3,0 z m 2.3,-5 -0.6,2.9 1.7,0 -0.6,-2.9 -0.5,0 z"
       id="path45"
       style="fill:#ffffff"
       inkscape:connector-curvature="0" /><path
       d="m 741.7,81.7 c -0.6,0.2 -1.2,0.2 -1.7,0.2 -0.5,0 -0.9,-0.1 -1.2,-0.2 -0.3,-0.1 -0.5,-0.3 -0.7,-0.6 -0.2,-0.3 -0.3,-0.6 -0.4,-0.9 -0.1,-0.4 -0.1,-0.8 -0.1,-1.4 0,-1.1 0.2,-2 0.5,-2.4 0.4,-0.5 0.9,-0.7 1.8,-0.7 0.5,0 1.1,0.1 1.8,0.3 l -0.1,1 c -0.6,-0.1 -1.1,-0.2 -1.5,-0.2 -0.4,0 -0.7,0.1 -0.8,0.2 -0.2,0.1 -0.3,0.3 -0.4,0.6 -0.1,0.3 -0.1,0.8 -0.1,1.5 0,0.7 0.1,1.2 0.3,1.5 0.2,0.3 0.5,0.4 1,0.4 0.5,0 1,-0.1 1.6,-0.1 l 0,0.8 z"
       id="path47"
       style="fill:#ffffff"
       inkscape:connector-curvature="0" /><path
       d="m 742.8,81.8 0,-6.1 1.2,0 0,6 -1.2,0.1 0,0 z"
       id="path49"
       style="fill:#ffffff"
       inkscape:connector-curvature="0" /><path
       d="m 749.5,81.1 c -0.4,0.5 -1,0.7 -1.9,0.7 -0.9,0 -1.6,-0.3 -1.9,-0.7 -0.4,-0.5 -0.6,-1.3 -0.6,-2.3 0,-1.1 0.2,-1.9 0.6,-2.4 0.4,-0.5 1,-0.8 1.9,-0.8 0.9,0 1.6,0.3 1.9,0.8 0.4,0.5 0.6,1.3 0.6,2.4 -0.1,1 -0.3,1.9 -0.6,2.3 z m -3.4,-6.8 2.2,-0.9 0.4,1.1 -2.3,0.7 -0.3,-0.9 z m 0.5,6.1 c 0.2,0.3 0.5,0.5 1,0.5 0.5,0 0.8,-0.2 1,-0.5 0.2,-0.3 0.3,-0.8 0.3,-1.6 0,-0.7 -0.1,-1.2 -0.3,-1.6 -0.2,-0.3 -0.5,-0.5 -1,-0.5 -0.5,0 -0.8,0.2 -1,0.5 -0.2,0.4 -0.3,0.9 -0.3,1.6 0,0.7 0,1.2 0.3,1.6 z"
       id="path51"
       style="fill:#ffffff"
       inkscape:connector-curvature="0" /><path
       d="m 751.1,81.8 0,-6.1 2.1,0 1.5,5 0.1,0 0,-5 1.2,0 0,6 -2,0 -1.5,-5 -0.1,0 0,5 -1.3,0.1 0,0 z"
       id="path53"
       style="fill:#ffffff"
       inkscape:connector-curvature="0" /><path
       d="m 761.3,81.8 -2,0 0,-6.1 2,0 c 0.5,0 0.9,0.1 1.3,0.2 0.4,0.1 0.6,0.3 0.8,0.5 0.2,0.3 0.3,0.6 0.4,0.9 0.1,0.4 0.1,0.8 0.1,1.4 0,0.6 -0.1,1 -0.1,1.4 -0.1,0.4 -0.2,0.7 -0.4,0.9 -0.2,0.3 -0.5,0.5 -0.8,0.6 -0.4,0.1 -0.8,0.2 -1.3,0.2 z m 1.3,-2.4 c 0,-0.2 0,-0.5 0,-0.8 0,-0.3 0,-0.6 -0.1,-0.8 0,-0.2 -0.1,-0.4 -0.2,-0.6 -0.1,-0.2 -0.2,-0.3 -0.4,-0.4 -0.2,-0.1 -0.4,-0.1 -0.7,-0.1 l -0.8,0 0,3.9 0.8,0 c 0.5,0 0.8,-0.1 1,-0.4 0.2,0 0.3,-0.3 0.4,-0.8 z"
       id="path55"
       style="fill:#ffffff"
       inkscape:connector-curvature="0" /><path
       d="m 764.9,81.8 0,-6.1 1.2,0 0,6 -1.2,0.1 0,0 z"
       id="path57"
       style="fill:#ffffff"
       inkscape:connector-curvature="0" /><path
       d="m 770,79.6 0,-1.1 1.8,0 0,3.1 c -0.8,0.2 -1.6,0.2 -2.1,0.2 -0.9,0 -1.6,-0.3 -1.9,-0.8 -0.4,-0.5 -0.5,-1.3 -0.5,-2.4 0,-1.1 0.2,-1.9 0.6,-2.4 0.4,-0.5 1,-0.7 1.9,-0.7 0.6,0 1.1,0.1 1.8,0.2 l 0.3,0.1 -0.1,0.9 c -0.7,-0.1 -1.3,-0.1 -1.8,-0.1 -0.5,0 -0.8,0.1 -0.9,0.2 -0.2,0.1 -0.3,0.3 -0.4,0.6 -0.1,0.3 -0.1,0.8 -0.1,1.5 0,0.7 0.1,1.2 0.3,1.5 0.2,0.3 0.5,0.4 1.1,0.4 l 0.7,-0.1 0,-1.2 -0.7,0 0,0.1 z"
       id="path59"
       style="fill:#ffffff"
       inkscape:connector-curvature="0" /><path
       d="m 772.9,81.8 0,-6.1 1.2,0 0,6 -1.2,0.1 0,0 z"
       id="path61"
       style="fill:#ffffff"
       inkscape:connector-curvature="0" /><path
       d="m 774.9,76.8 0,-1.1 4.5,0 0,1.1 -1.6,0 0,5 -1.2,0 0,-5 c -0.1,0 -1.7,0 -1.7,0 z"
       id="path63"
       style="fill:#ffffff"
       inkscape:connector-curvature="0" /><path
       d="m 779.3,81.8 1.4,-6 2.3,0 1.4,6 -1.2,0 -0.3,-1.1 -2.1,0 -0.3,1.1 -1.2,0 z m 2.3,-5 -0.6,2.9 1.7,0 -0.6,-2.9 -0.5,0 z"
       id="path65"
       style="fill:#ffffff"
       inkscape:connector-curvature="0" /><path
       d="m 788.6,81.8 -3.4,0 0,-6.1 1.2,0 0,5 2.2,0 0,1.1 0,0 z"
       id="path67"
       style="fill:#ffffff"
       inkscape:connector-curvature="0" /></g><g
     id="g69"
     transform="translate(0.5105251,0)"><g
       id="g71"><g
         id="g73"><path
           d="m 681.2,81.6 c 0,2.2 -1.8,4.1 -4.1,4.1 l -18.1,0 c -2.2,0 -4.1,-1.8 -4.1,-4.1 l 0,-18.2 c 0,-2.2 1.8,-4.1 4.1,-4.1 l 18.2,0 c 2.2,0 4.1,1.8 4.1,4.1 l 0,18.2 z"
           id="path75"
           inkscape:connector-curvature="0"
           style="fill:#29abe2" /><path
           d="m 668.2,63.5 c 1,0 2,0.1 2.9,0.3 0.9,0.2 1.7,0.5 2.3,0.9 0.7,0.4 1.2,0.9 1.6,1.5 0.4,0.6 0.6,1.3 0.6,2.1 l 0,8 c 0,0.7 -0.1,1.2 -0.3,1.8 -0.2,0.5 -0.5,0.9 -0.8,1.4 -0.3,0.4 -0.7,0.7 -1,0.9 -0.4,0.3 -0.8,0.5 -1.2,0.6 -1,0.4 -2.1,0.6 -3.3,0.7 l -5.6,0 c -0.6,0 -1.1,-0.1 -1.5,-0.3 -0.4,-0.2 -0.6,-0.4 -0.8,-0.7 -0.2,-0.3 -0.3,-0.6 -0.3,-0.9 0,-0.4 -0.1,-0.7 -0.1,-1.1 l 0,-12.3 c 0,-0.4 0,-0.7 0.1,-1.1 0.1,-0.4 0.1,-0.7 0.3,-0.9 0.2,-0.2 0.4,-0.5 0.8,-0.7 0.4,-0.2 0.8,-0.3 1.5,-0.3 l 4.8,0.1 0,0 z m -2.4,3 0,12 2.2,0 c 0.5,0 0.9,-0.1 1.3,-0.3 0.2,-0.1 0.3,-0.2 0.5,-0.3 0.2,-0.1 0.3,-0.2 0.4,-0.4 0.1,-0.2 0.2,-0.3 0.3,-0.5 0.1,-0.2 0.1,-0.4 0.1,-0.7 l 0,-7.6 c 0,-0.3 -0.1,-0.5 -0.1,-0.8 -0.1,-0.2 -0.2,-0.4 -0.3,-0.6 -0.1,-0.2 -0.3,-0.3 -0.4,-0.4 -0.1,-0.1 -0.3,-0.2 -0.5,-0.3 -0.4,-0.2 -0.8,-0.3 -1.3,-0.3 l -2.2,0 z"
           id="path77"
           inkscape:connector-curvature="0"
           style="fill:#ffffff" /></g><g
         id="g79"><path
           d="m 651.2,81.4 c 0,2.2 -1.8,4.1 -4.1,4.1 l -18.1,0 c -2.2,0 -4.1,-1.8 -4.1,-4.1 l 0,-18.2 c 0,-2.2 1.8,-4.1 4.1,-4.1 l 18.2,0 c 2.2,0 4.1,1.8 4.1,4.1 l 0,18.2 z"
           id="path81"
           inkscape:connector-curvature="0"
           style="fill:#ff0013" /><path
           d="m 646.1,74.8 c 0,0.6 0.1,1.2 0.1,1.8 0,0.6 0.1,1.2 0.1,1.8 l 0,0.4 c 0,0.3 0,0.6 -0.1,0.9 0,0.3 -0.1,0.6 -0.3,0.8 -0.2,0.3 -0.4,0.4 -0.7,0.6 -0.3,0.2 -0.8,0.2 -1.4,0.2 -0.6,0 -1,-0.1 -1.4,-0.2 -0.3,-0.2 -0.6,-0.4 -0.7,-0.6 -0.2,-0.3 -0.3,-0.5 -0.3,-0.8 -0.1,-0.3 -0.1,-0.6 -0.1,-0.9 l 0,-1.8 -6.8,0 0,1.8 c 0,0.3 0,0.6 -0.1,0.9 -0.1,0.3 -0.1,0.6 -0.3,0.8 -0.2,0.3 -0.4,0.4 -0.7,0.6 -0.3,0.2 -0.8,0.2 -1.4,0.2 -0.6,0 -1,-0.1 -1.4,-0.2 -0.3,-0.2 -0.6,-0.4 -0.7,-0.6 -0.2,-0.3 -0.2,-0.5 -0.3,-0.8 0,-0.3 -0.1,-0.6 -0.1,-0.9 l 0,-0.4 c 0,-0.3 0,-0.6 0,-0.8 0,-0.3 0,-0.6 0,-0.9 0,-0.3 0,-0.6 0.1,-0.9 0,-0.3 0,-0.6 0.1,-0.9 0.6,-1.5 1.1,-3 1.8,-4.6 0.6,-1.6 1.2,-3.1 1.8,-4.6 0.1,-0.3 0.3,-0.6 0.4,-0.9 0.2,-0.3 0.4,-0.6 0.6,-0.8 0.3,-0.2 0.6,-0.4 1,-0.5 0.4,-0.2 0.9,-0.2 1.6,-0.2 l 1.7,0 c 0.6,0 1.1,0.1 1.6,0.2 0.4,0.2 0.7,0.3 1,0.5 0.3,0.2 0.5,0.5 0.6,0.8 0.2,0.3 0.3,0.6 0.4,0.9 l 3.9,9.1 z m -10.7,-1.2 5.4,0 -2.5,-7 -0.4,0 -2.5,7 z"
           id="path83"
           inkscape:connector-curvature="0"
           style="fill:#ffffff" /></g></g><g
       id="g85"><path
         d="m 621.2,81.4 c 0,2.2 -1.8,4.1 -4.1,4.1 l -18.1,0 c -2.2,0 -4.1,-1.8 -4.1,-4.1 l 0,-18.2 c 0,-2.2 1.8,-4.1 4.1,-4.1 l 18.2,0 c 2.2,0 4.1,1.8 4.1,4.1 l 0,18.2 z"
         id="path87"
         inkscape:connector-curvature="0"
         style="fill:#39b54a" /></g><path
       d="m 616,70 c -0.4,-0.3 -0.7,-0.7 -0.7,-1.2 0,-0.3 0.1,-0.6 0.3,-0.8 0.2,-0.2 0.2,-0.4 0.2,-0.6 0,-0.3 -0.1,-0.5 -0.3,-0.7 -0.2,-0.3 -1.9,-2.2 -6.1,-4.6 -0.3,-0.2 -0.5,-0.2 -0.8,-0.2 -0.4,0 -0.7,0.1 -0.9,0.3 l -2.6,2.2 c -0.3,0.2 -0.5,0.7 -0.8,0.7 l -1.9,0 c -0.6,0 -1.4,0.1 -1.4,0.7 0,0 0,12.8 0,12.9 l 0,1 c 0,0.8 0.9,2 1.9,2 l 1.2,0 c 0.9,0 1.7,-0.9 1.7,-1.8 0,-0.3 -0.1,-0.9 -0.1,-1.2 l 0,-2.1 c 0,0 1.6,0.6 3.2,0.6 3.7,0 7,-2.5 7.7,-5.9 0,-0.1 0.1,-0.2 0.1,-0.3 -0.2,-0.5 -0.4,-0.8 -0.7,-1 z"
       id="path89"
       inkscape:connector-curvature="0"
       style="fill:#ffffff" /></g></svg>